<svg xmlns="http://www.w3.org/2000/svg" viewBox="0 0 169.2 20.5" enable-background="new 0 0 169.2 20.5"><g fill="#FDFDFE"><path d="M26.2 12.9h5.2v1.4h-3.6V16h3v1.3h-3v3h-1.6v-7.4zM34.5 14.8c1.7 0 2.8 1.1 2.8 2.8 0 1.7-1.1 2.8-2.8 2.8-1.7 0-2.8-1.1-2.8-2.8.1-1.7 1.2-2.8 2.8-2.8zm0 4.5c1 0 1.3-.8 1.3-1.7 0-.8-.3-1.7-1.3-1.7s-1.3.8-1.3 1.7c0 .8.4 1.7 1.3 1.7zM38.2 15h1.4v.8c.3-.6 1-.8 1.6-.8 1.5 0 1.9.8 1.9 2.2v3.2h-1.4v-3c0-.8-.3-1.3-.9-1.3-.8 0-1.1.4-1.1 1.5v2.8h-1.4V15zM48.1 19.6c-.3.6-.9.8-1.6.8-1.6 0-2.4-1.4-2.4-2.9 0-1.4.8-2.8 2.4-2.8.6 0 1.3.3 1.6.8v-2.7h1.4v7.4h-1.4v-.6zm-1.3-3.7c-.9 0-1.3.8-1.3 1.7 0 .8.4 1.7 1.3 1.7s1.3-.8 1.3-1.7c0-.9-.3-1.7-1.3-1.7zM51.8 18.5c0 .7.5.9 1.1.9.4 0 .9-.2.9-.7 0-.4-.6-.6-1.7-.8-.8-.2-1.7-.5-1.7-1.4 0-1.4 1.2-1.7 2.3-1.7 1.2 0 2.2.4 2.4 1.7h-1.4c0-.6-.5-.8-1-.8-.3 0-.8.1-.8.5 0 .5.8.6 1.7.8.8.2 1.7.5 1.7 1.5 0 1.4-1.2 1.9-2.5 1.9s-2.5-.4-2.5-1.9h1.5zM62.7 19.6c-.3.6-.9.8-1.6.8-1.6 0-2.4-1.4-2.4-2.9 0-1.4.8-2.8 2.4-2.8.6 0 1.3.3 1.6.8v-2.7h1.4v7.4h-1.4v-.6zm-1.4-3.7c-.9 0-1.3.8-1.3 1.7 0 .8.4 1.7 1.3 1.7s1.3-.8 1.3-1.7c0-.9-.3-1.7-1.3-1.7zM66.3 17.9c0 .9.5 1.4 1.3 1.4.6 0 1.1-.3 1.2-.7H70c-.4 1.3-1.3 1.8-2.5 1.8-1.7 0-2.7-1.2-2.7-2.8 0-1.6 1.1-2.8 2.7-2.8 1.8 0 2.7 1.5 2.6 3.1h-3.8zm2.4-.9c-.2-.8-.4-1.1-1.2-1.1-.9 0-1.2.8-1.2 1.1h2.4zM72.1 18.5c0 .7.5.9 1.1.9.4 0 .9-.2.9-.7 0-.4-.6-.6-1.7-.8-.8-.2-1.7-.5-1.7-1.4 0-1.4 1.2-1.7 2.3-1.7 1.2 0 2.2.4 2.4 1.7H74c0-.6-.5-.8-1-.8-.3 0-.8.1-.8.5 0 .5.8.6 1.7.8.8.2 1.7.5 1.7 1.5 0 1.4-1.2 1.9-2.5 1.9s-2.5-.4-2.5-1.9h1.5zM79.4 15h1.4v.8c.4-.5.9-.8 1.6-.8.7 0 1.3.3 1.5.8.3-.4.8-.8 1.6-.8 1.1 0 1.9.5 1.9 1.9v3.5H86v-3c0-.7-.1-1.3-.9-1.3s-1 .7-1 1.4v3h-1.4v-3c0-.6 0-1.4-.8-1.4-.3 0-1 .2-1 1.3v3h-1.4l-.1-5.4zM89.8 17.9c0 .9.5 1.4 1.3 1.4.6 0 1.1-.3 1.2-.7h1.3c-.4 1.3-1.3 1.8-2.5 1.8-1.7 0-2.7-1.2-2.7-2.8 0-1.6 1.1-2.8 2.7-2.8 1.8 0 2.7 1.5 2.6 3.1h-3.9zm2.4-.9c-.2-.8-.4-1.1-1.2-1.1-.9 0-1.2.8-1.2 1.1h2.4zm-1-2.7h-1l1-1.4h1.6l-1.6 1.4zM98.4 19.6c-.3.6-.9.8-1.6.8-1.6 0-2.4-1.4-2.4-2.9 0-1.4.8-2.8 2.4-2.8.6 0 1.3.3 1.6.8v-2.7h1.4v7.4h-1.4v-.6zm-1.2-3.7c-.9 0-1.3.8-1.3 1.7 0 .8.4 1.7 1.3 1.7s1.3-.8 1.3-1.7c-.1-.9-.4-1.7-1.3-1.7zM102.4 14.1H101v-1.2h1.4v1.2zm-1.5.9h1.4v5.3h-1.4V15zM103.4 16.6c.1-1.4 1.3-1.8 2.5-1.8 1.1 0 2.4.3 2.4 1.5v2.8c0 .5.1.9.2 1.2H107c-.1-.2-.1-.3-.1-.5-.4.5-1.2.7-1.8.7-1 0-1.8-.5-1.8-1.6 0-1.2.9-1.5 1.8-1.6.9-.2 1.7-.1 1.7-.7s-.4-.8-.9-.8c-.6 0-.9.3-.9.8h-1.6zm3.4 1.1c-.3.3-.8.3-1.2.3-.4.1-.8.3-.8.8s.4.7.9.7c1.2 0 1.2-.9 1.2-1.3l-.1-.5zM110.5 18.5c0 .7.5.9 1.1.9.4 0 .9-.2.9-.7 0-.4-.6-.6-1.7-.8-.8-.2-1.7-.5-1.7-1.4 0-1.4 1.2-1.7 2.3-1.7 1.2 0 2.2.4 2.4 1.7h-1.4c0-.6-.5-.8-1-.8-.3 0-.8.1-.8.5 0 .5.8.6 1.7.8.8.2 1.7.5 1.7 1.5 0 1.4-1.2 1.9-2.5 1.9s-2.5-.4-2.5-1.9h1.5zM121.6 19.6c-.3.6-.9.8-1.6.8-1.6 0-2.4-1.4-2.4-2.9 0-1.4.8-2.8 2.4-2.8.6 0 1.3.3 1.6.8v-2.7h1.4v7.4h-1.4v-.6zm-1.4-3.7c-.9 0-1.3.8-1.3 1.7 0 .8.4 1.7 1.3 1.7s1.3-.8 1.3-1.7c0-.9-.2-1.7-1.3-1.7zM129 20.3h-1.4v-.8c-.3.6-1 .8-1.6.8-1.5 0-1.9-.8-1.9-2.2v-3.3h1.4v3c0 .8.3 1.3.9 1.3.8 0 1.1-.4 1.1-1.5v-2.8h1.4v5.5zM137.3 15.4c-.1-.8-.8-1.3-1.6-1.3-1.4 0-2 1.3-2 2.5 0 1.3.5 2.5 2 2.5 1 0 1.5-.7 1.7-1.6h1.6c-.2 1.9-1.4 3-3.2 3-2.3 0-3.6-1.7-3.6-3.8 0-2.2 1.4-3.9 3.6-3.9 1.6 0 3 .9 3.2 2.6h-1.7zM139.9 16.6c.1-1.4 1.3-1.8 2.5-1.8 1.1 0 2.4.3 2.4 1.5v2.8c0 .5.1.9.2 1.2h-1.5c-.1-.2-.1-.3-.1-.5-.4.5-1.2.7-1.8.7-1 0-1.8-.5-1.8-1.6 0-1.2.9-1.5 1.8-1.6.9-.2 1.7-.1 1.7-.7s-.4-.8-.9-.8c-.6 0-.9.3-.9.8h-1.6zm3.4 1.1c-.3.3-.8.3-1.2.3-.4.1-.8.3-.8.8s.4.7.9.7c1.2 0 1.2-.9 1.2-1.3l-.1-.5zM145.9 15h1.4v.8c.3-.6 1-.8 1.6-.8 1.5 0 1.9.8 1.9 2.2v3.2h-1.4v-3c0-.8-.3-1.3-.9-1.3-.8 0-1.1.4-1.1 1.5v2.8H146V15zM151.9 16.6c.1-1.4 1.3-1.8 2.5-1.8 1.1 0 2.4.3 2.4 1.5v2.8c0 .5.1.9.2 1.2h-1.5c-.1-.2-.1-.3-.1-.5-.4.5-1.2.7-1.8.7-1 0-1.8-.5-1.8-1.6 0-1.2.9-1.5 1.8-1.6.9-.2 1.7-.1 1.7-.7s-.4-.8-.9-.8c-.6 0-.9.3-.9.8h-1.6zm3.4 1.1c-.3.3-.8.3-1.2.3-.4.1-.8.3-.8.8s.4.7.9.7c1.2 0 1.2-.9 1.2-1.3l-.1-.5zM161.7 19.6c-.3.6-.9.8-1.6.8-1.6 0-2.4-1.4-2.4-2.9 0-1.4.8-2.8 2.4-2.8.6 0 1.3.3 1.6.8v-2.7h1.4v7.4h-1.4v-.6zm-1.3-3.7c-.9 0-1.3.8-1.3 1.7 0 .8.4 1.7 1.3 1.7s1.3-.8 1.3-1.7c0-.9-.4-1.7-1.3-1.7zM164.1 16.6c.1-1.4 1.3-1.8 2.5-1.8 1.1 0 2.4.3 2.4 1.5v2.8c0 .5.1.9.2 1.2h-1.5c-.1-.2-.1-.3-.1-.5-.4.5-1.2.7-1.8.7-1 0-1.8-.5-1.8-1.6 0-1.2.9-1.5 1.8-1.6.9-.2 1.7-.1 1.7-.7s-.4-.8-.9-.8c-.6 0-.9.3-.9.8h-1.6zm3.4 1.1c-.3.3-.8.3-1.2.3-.4.1-.8.3-.8.8s.4.7.9.7c1.2 0 1.2-.9 1.2-1.3l-.1-.5z"/></g><g fill="#FDFDFE"><path d="M30.9 2.6c-.1-.8-.8-1.3-1.6-1.3-1.4 0-2 1.3-2 2.5 0 1.3.5 2.5 2 2.5 1 0 1.5-.7 1.7-1.6h1.6c-.2 1.9-1.4 3-3.2 3-2.3 0-3.6-1.7-3.6-3.8-.1-2.3 1.3-4 3.6-4 1.6 0 3 .9 3.2 2.6h-1.7zM33.4 3.8c.1-1.3 1.3-1.8 2.5-1.8 1.1 0 2.4.3 2.4 1.5v2.8c0 .5.1.9.2 1.2H37c-.1-.2-.1-.3-.1-.5-.4.5-1.2.7-1.8.7-1 0-1.8-.5-1.8-1.6 0-1.2.9-1.5 1.8-1.6.9-.2 1.7-.1 1.7-.7s-.4-.8-.9-.8c-.6 0-.9.3-.9.8h-1.6zm3.4 1.1c-.3.3-.8.3-1.2.3-.4.1-.8.3-.8.8s.4.7.9.7c1.2 0 1.2-.9 1.2-1.3l-.1-.5zM39.3 2.2h1.4V3c.3-.6 1-.8 1.6-.8 1.5 0 1.9.8 1.9 2.2v3.3h-1.4V4.5c0-.8-.3-1.3-.9-1.3-.8 0-1.1.4-1.1 1.5v2.8h-1.4V2.2zM45.4 3.8c.1-1.3 1.3-1.8 2.5-1.8 1.1 0 2.4.3 2.4 1.5v2.8c0 .5.1.9.2 1.2H49c-.1-.2-.1-.3-.1-.5-.4.5-1.2.7-1.8.7-1 0-1.8-.5-1.8-1.6 0-1.2.9-1.5 1.8-1.6.9-.2 1.7-.1 1.7-.7s-.4-.8-.9-.8c-.6 0-.9.3-.9.8h-1.6zm3.4 1.1c-.3.3-.8.3-1.2.3-.4.1-.8.3-.8.8s.4.7.9.7c1.2 0 1.2-.9 1.2-1.3l-.1-.5zM55.1 6.9c-.3.6-.9.8-1.6.8-1.6 0-2.4-1.4-2.4-2.9 0-1.4.8-2.8 2.4-2.8.6 0 1.3.3 1.6.8V.2h1.4v7.4h-1.4v-.7zm-1.2-3.8c-.9 0-1.3.8-1.3 1.7 0 .8.4 1.7 1.3 1.7s1.3-.8 1.3-1.7c-.1-.8-.4-1.7-1.3-1.7zM57.6 3.8c.1-1.3 1.3-1.8 2.5-1.8 1.1 0 2.4.3 2.4 1.5v2.8c0 .5.1.9.2 1.2h-1.5c-.1-.2-.1-.3-.1-.5-.4.5-1.2.7-1.8.7-1 0-1.8-.5-1.8-1.6 0-1.2.9-1.5 1.8-1.6.9-.2 1.7-.1 1.7-.7s-.5-.8-1-.8c-.6 0-.9.3-.9.8h-1.5zM61 4.9c-.3.3-.8.3-1.2.3-.4.1-.8.3-.8.8s.4.7.9.7c1.2 0 1.2-.9 1.2-1.3l-.1-.5zM66.6.2h2.3l1.7 5.1L72.2.2h2.3v7.4H73V2.3l-1.8 5.2h-1.3l-1.8-5.2v5.2h-1.5V.2zM76.8 5.2c0 .9.5 1.4 1.3 1.4.6 0 1.1-.3 1.2-.7h1.3c-.4 1.3-1.3 1.8-2.5 1.8-1.7 0-2.7-1.2-2.7-2.8 0-1.6 1.1-2.8 2.7-2.8 1.8 0 2.7 1.5 2.6 3.1h-3.9zm2.4-.9c-.2-.7-.5-1.1-1.2-1.1-.9 0-1.2.8-1.2 1.1h2.4zM85.4 6.9c-.3.6-.9.8-1.6.8-1.6 0-2.4-1.4-2.4-2.9 0-1.4.8-2.8 2.4-2.8.6 0 1.3.3 1.6.8V.2h1.4v7.4h-1.4v-.7zm-1.3-3.8c-.9 0-1.3.8-1.3 1.7 0 .8.4 1.7 1.3 1.7s1.3-.8 1.3-1.7c0-.8-.3-1.7-1.3-1.7zM89.4 1.4H88V.2h1.4v1.2zm-1.5.8h1.4v5.3h-1.4V2.2zM90.5 3.8C90.6 2.5 91.8 2 93 2c1.1 0 2.4.3 2.4 1.5v2.8c0 .5.1.9.2 1.2H94V7c-.4.5-1.2.7-1.8.7-1 0-1.8-.5-1.8-1.6 0-1.2.9-1.5 1.8-1.6.9-.2 1.7-.1 1.7-.7S93.5 3 93 3c-.7 0-1 .3-1 .9l-1.5-.1zm3.4 1.1c-.3.3-.8.3-1.2.3-.4.1-.8.3-.8.8s.4.7.9.7c1.2 0 1.2-.9 1.2-1.3l-.1-.5zM99.5.2h5.2v1.4h-3.6v1.7h3v1.3h-3v3h-1.6V.2zM110.4 7.5H109v-.7c-.3.6-1 .8-1.6.8-1.5 0-1.9-.8-1.9-2.2V2.2h1.4v3c0 .8.3 1.3.9 1.3.8 0 1.1-.4 1.1-1.5V2.2h1.4v5.3h.1zM111.5 2.2h1.4V3c.3-.6 1-.8 1.6-.8 1.5 0 1.9.8 1.9 2.2v3.3H115V4.5c0-.8-.3-1.3-.9-1.3-.8 0-1.1.4-1.1 1.5v2.8h-1.4l-.1-5.3zM121.2 6.9c-.3.6-.9.8-1.6.8-1.6 0-2.4-1.4-2.4-2.9 0-1.4.8-2.8 2.4-2.8.6 0 1.3.3 1.6.8V.2h1.4v7.4h-1.4v-.7zm-1.3-3.8c-.9 0-1.3.8-1.3 1.7 0 .8.4 1.7 1.3 1.7s1.3-.8 1.3-1.7c0-.8-.4-1.7-1.3-1.7z"/></g><path fill="#F15D22" d="M0 18h2.2v2.2H0zM4.5 18h2.2v2.2H4.5zM9 18h2.2v2.2H9zM13.4 18h2.2v2.2h-2.2z"/><path fill="#E63625" d="M2.2 18h2.2v2.2H2.2zM6.7 18h2.2v2.2H6.7zM11.2 18h2.2v2.2h-2.2zM15.6 18h2.2v2.2h-2.2z"/><path fill="#F15D22" d="M17.9 18h2.2v2.2h-2.2z"/><path fill="#F37121" d="M0 15.8h2.2V18H0z"/><path fill="#F15D22" d="M2.2 15.8h2.2V18H2.2z"/><path fill="#F37121" d="M4.5 15.8h2.2V18H4.5z"/><path fill="#F15D22" d="M6.7 15.8h2.2V18H6.7z"/><path fill="#F37121" d="M9 15.8h2.2V18H9z"/><path fill="#F15D22" d="M11.2 15.8h2.2V18h-2.2z"/><path fill="#F37121" d="M13.4 15.8h2.2V18h-2.2z"/><path fill="#F15D22" d="M15.6 15.8h2.2V18h-2.2z"/><path fill="#F37121" d="M17.9 15.8h2.2V18h-2.2z"/><path fill="#F15D22" d="M0 13.5h2.2v2.2H0z"/><path fill="#F5893A" d="M2.2 13.5h2.2v2.2H2.2z"/><path fill="#F26822" d="M4.5 13.5h2.2v2.2H4.5z"/><path fill="#F49C3B" d="M6.7 13.5h2.2v2.2H6.7z"/><path fill="#F15D22" d="M9 13.5h2.2v2.2H9z"/><path fill="#F37121" d="M11.2 13.5h2.2v2.2h-2.2z"/><path fill="#F49C3B" d="M13.4 13.5h2.2v2.2h-2.2z"/><path fill="#F37121" d="M15.6 13.5h2.2v2.2h-2.2z"/><path fill="#F26822" d="M17.9 13.5h2.2v2.2h-2.2z"/><path fill="#F49C3B" d="M0 11.3h2.2v2.2H0z"/><path fill="#FCC06F" d="M2.2 11.3h2.2v2.2H2.2z"/><path fill="#F68D3E" d="M4.5 11.3h2.2v2.2H4.5z"/><path fill="#F58120" d="M6.7 11.3h2.2v2.2H6.7z"/><path fill="#EF9360" d="M9 11.3h2.2v2.2H9z"/><path fill="#FFD699" d="M11.2 11.3h2.2v2.2h-2.2z"/><path fill="#F5893A" d="M13.4 11.3h2.2v2.2h-2.2z"/><path fill="#F26822" d="M15.6 11.3h2.2v2.2h-2.2z"/><path fill="#FAAA48" d="M17.9 11.3h2.2v2.2h-2.2z"/><path fill="#FFD699" d="M0 9h2.2v2.2H0z"/><path fill="#FAAA48" d="M2.2 9h2.2v2.2H2.2z"/><path fill="#F57E2D" d="M4.5 9h2.2v2.2H4.5z"/><path fill="#FFD699" d="M6.7 9h2.2v2.2H6.7z"/><path fill="#F8B964" d="M9 9h2.2v2.2H9z"/><path fill="#F7922D" d="M11.2 9h2.2v2.2h-2.2z"/><path fill="#F9CC98" d="M13.4 9h2.2v2.2h-2.2z"/><path fill="#F8B367" d="M15.6 9h2.2v2.2h-2.2z"/><path fill="#F5893A" d="M17.9 9h2.2v2.2h-2.2z"/><path fill="#FAAA48" d="M0 6.9h2.2v2.2H0z"/><path fill="#F57F2E" d="M2.2 6.9h2.2v2.2H2.2z"/><path fill="#FAAA48" d="M4.5 6.9h2.2v2.2H4.5z"/><path fill="#F57F2E" d="M6.7 6.9h2.2v2.2H6.7z"/><path fill="#FAAA48" d="M9 6.9h2.2v2.2H9z"/><path fill="#F57F2E" d="M11.2 6.9h2.2v2.2h-2.2z"/><path fill="#FAAA48" d="M13.4 6.9h2.2v2.2h-2.2z"/><path fill="#F57F2E" d="M15.6 6.9h2.2v2.2h-2.2z"/><path fill="#FAAA48" d="M17.9 6.9h2.2v2.2h-2.2z"/><path fill="#FFD699" d="M0 4.6h2.2v2.2H0z"/><path fill="#FAAA48" d="M2.2 4.6h2.2v2.2H2.2z"/><path fill="#FFD699" d="M4.5 4.6h2.2v2.2H4.5z"/><path fill="#FAAA48" d="M6.7 4.6h2.2v2.2H6.7z"/><path fill="#FFD699" d="M9 4.6h2.2v2.2H9z"/><path fill="#FAAA48" d="M11.2 4.6h2.2v2.2h-2.2z"/><path fill="#FFD699" d="M13.4 4.6h2.2v2.2h-2.2z"/><path fill="#FAAA48" d="M15.6 4.6h2.2v2.2h-2.2z"/><path fill="#FFD699" d="M17.9 4.6h2.2v2.2h-2.2z"/><path fill="#FBE2BB" d="M0 2.4h2.2v2.2H0z"/><path fill="#FCC988" d="M2.2 2.4h2.2v2.2H2.2z"/><path fill="#FBE2BB" d="M4.5 2.4h2.2v2.2H4.5z"/><path fill="#FCC988" d="M6.7 2.4h2.2v2.2H6.7z"/><path fill="#FBE2BB" d="M9 2.4h2.2v2.2H9z"/><path fill="#FCC988" d="M11.2 2.4h2.2v2.2h-2.2z"/><path fill="#FBE2BB" d="M13.4 2.4h2.2v2.2h-2.2z"/><path fill="#FCC988" d="M15.6 2.4h2.2v2.2h-2.2z"/><path fill="#FBE2BB" d="M17.9 2.4h2.2v2.2h-2.2z"/><path fill="#FBEBDD" d="M0 .1h2.2v2.2H0z"/><path fill="#F7E1C7" d="M2.2.1h2.2v2.2H2.2z"/><path fill="#FBEBDD" d="M4.5.1h2.2v2.2H4.5z"/><path fill="#F7E1C7" d="M6.7.1h2.2v2.2H6.7z"/><path fill="#FBEBDD" d="M9 .1h2.2v2.2H9z"/><path fill="#F7E1C7" d="M11.2.1h2.2v2.2h-2.2z"/><path fill="#FBEBDD" d="M13.4.1h2.2v2.2h-2.2z"/><path fill="#F7E1C7" d="M15.6.1h2.2v2.2h-2.2z"/><path fill="#FBEBDD" d="M17.9.1h2.2v2.2h-2.2z"/></svg>