<?xml version="1.0" encoding="utf-8"?>
<!-- Generator: Adobe Illustrator 18.1.1, SVG Export Plug-In . SVG Version: 6.00 Build 0)  -->
<!DOCTYPE svg PUBLIC "-//W3C//DTD SVG 1.1//EN" "http://www.w3.org/Graphics/SVG/1.1/DTD/svg11.dtd">
<svg version="1.1" id="Layer_1" xmlns="http://www.w3.org/2000/svg" xmlns:xlink="http://www.w3.org/1999/xlink" x="0px" y="0px"
	 viewBox="0 0 87.7 93.2" enable-background="new 0 0 87.7 93.2" xml:space="preserve">
<g>
	<defs>
		<rect id="SVGID_1_" x="0" width="87.7" height="93.2"/>
	</defs>
	<clipPath id="SVGID_2_">
		<use xlink:href="#SVGID_1_"  overflow="visible"/>
	</clipPath>
	<path clip-path="url(#SVGID_2_)" fill="#FFFFFF" d="M43.9,81.5c11.8,0,21.4-16.1,21.4-35.9S55.7,9.7,43.9,9.7S22.5,25.7,22.5,45.6
		S32,81.5,43.9,81.5"/>
	<path clip-path="url(#SVGID_2_)" fill="#81BAAD" d="M35.8,75.7c-0.2,0-0.3,0-0.5,0c-0.7-2.8-1-18.8-0.7-28.1
		c-1.8-0.8-3.9,0-5.7-0.5c-0.8-2.8-0.9-7.2-0.2-10.1c0.7-0.8,1.7-0.6,2.6-0.7c2.9-0.2,3.1-0.3,3.2-3.4c0-1.5,0-3.1,0.1-4.6
		c0-0.8,0-1.7,0.2-2.5c0.9-5.4,4.2-8.6,9.5-9.5c4-0.7,8.1-0.6,12.2-0.2l0.3-0.3l0.4,0.4c0,0,0.1,0,0.1,0c0.1,0,0.2,0.2,0.3,0.3v0.1
		l29.8,29.8l0.2,0.3c0-0.4,0-0.8,0-1.2C87.5,33.1,83,21.3,73.1,11.9C63.4,2.7,51.7-1.4,38.5,0.4C23.9,2.3,13.1,10.4,6,23.1
		c-5,9-6.7,18.6-5.6,28.9C1.7,64.6,7,75,16.5,83.1c9.3,8,20.3,11.2,32.4,9.8c0.9-0.1,1.8-0.3,2.7-0.4L35.8,75.8L35.8,75.7z"/>
	<path clip-path="url(#SVGID_2_)" fill="#72A499" d="M63.4,47.5v-1c0.1,0.2,0.2,0.5,0.2,0.7C63.7,47.3,63.6,47.4,63.4,47.5
		 M60.1,37.5c-0.1,0-0.2,0-0.2,0v-1.6c0.1,0,0.2,0,0.2,0V37.5z M55.6,50.9c0-0.3,0-0.6,0.1-0.9c0.1,0,0.2,0,0.2,0.1c0,0.3,0,0.6,0,1
		C55.7,51,55.6,50.9,55.6,50.9 M77.3,76.7c6.7-8.5,10.1-18.2,10.3-29.9l-0.2-0.3L57.6,16.8v9.8c-1.1,1-2.2,0.7-3.2,0.7
		c-1.3,0.1-2.6,0-3.9,0.2c-1.3,0.1-2.2,0.9-2.4,2.2c-0.2,2.2-0.3,4.4,0.1,6.7c1.5,0,2.7,0.1,4,0c1.1-0.1,2.3-0.4,3.7-0.6
		c0.4,0.3,1.1,0.7,1.9,1.2c-0.3,3.4-0.6,6.7-1.3,10.2c-2.8,0.7-5.5-0.1-8.2,0.5c-0.6,3.1-0.2,6.1-0.3,9.2c-0.1,3.1,0,6.1,0,9.2
		c0,3.1,0,6.1,0,9.3c-0.8,0.2-1.5,0.4-2.1,0.4c-3.3,0-6.7,0-10,0l0,0.1l15.9,16.6C62.1,90.6,70.6,85.1,77.3,76.7"/>
</g>
</svg>
