<svg baseProfile="tiny" xmlns="http://www.w3.org/2000/svg" viewBox="0 0 115.8 34.7"><g fill="#C8C8C8"><path d="M26.1 30.7c-.3.2-.6.3-1 .3-.9 0-1.2-.8-1.2-1.6 0-1.3.7-3.3 2-3.3.6 0 .8.5.8 1 0 1.1-1 1.6-2.3 1.6 0 .1-.1.9 0 1.2.1.5.4.8.8.8s.6-.2.8-.3l.1.3zm.3-3.7c0-.4-.2-.6-.5-.6-.5 0-1 .6-1.3 1.8.8.1 1.8-.2 1.8-1.2zM27 31l.6-3.1c.2-.8.2-1.4.3-1.7h.4l-.2.8c.4-.7.8-.9 1.3-.9s.8.5.8.9c0 .3 0 .5-.1.7l-.7 3.3H29l.6-3.2c0-.3.1-.5.1-.8 0-.3-.1-.6-.5-.6-.6 0-1.2.9-1.4 1.8l-.4 2.8H27zM32.3 25.1l-.3 1.1h1l-.1.4H32l-.6 3.1c-.1.3-.1.6-.1.7 0 .2.1.3.3.3h.3v.3c-.1 0-.3.1-.4.1-.4 0-.6-.2-.6-.6 0-.2 0-.3.1-.8l.6-3.1H31l.1-.4h.6l.2-.8.4-.3zM34.9 30.7c-.3.2-.6.3-1 .3-.9 0-1.2-.8-1.2-1.6 0-1.3.7-3.3 2-3.3.6 0 .8.5.8 1 0 1.1-1 1.6-2.3 1.6 0 .1-.1.9 0 1.2.1.5.4.8.8.8s.6-.2.8-.3l.1.3zm.3-3.7c0-.4-.2-.6-.5-.6-.5 0-1 .6-1.3 1.8.8.1 1.8-.2 1.8-1.2zM35.7 31l.6-3.2c.1-.7.2-1.3.2-1.6h.4c0 .3 0 .5-.1 1 .3-.6.7-1 1.2-1h.1l-.1.5c-.7 0-1.3 1.1-1.4 1.7l-.5 2.6h-.4zM39.8 25.1l-.2 1.1h.9l-.1.4h-.9l-.6 3.1c-.1.3-.1.6-.1.7 0 .2.1.3.3.3h.3v.3c-.1 0-.3.1-.4.1-.4 0-.6-.2-.6-.6 0-.2 0-.3.1-.8l.6-3.1h-.6l.1-.4h.6l.2-.8.4-.3zM42.4 31c0-.3.1-.6.1-1-.5.9-.9 1.1-1.3 1.1-.5 0-.8-.4-.8-1.3 0-1.5.8-3.7 2.6-3.7.2 0 .5.1.6.1L43 29c-.1.7-.2 1.4-.2 2h-.4zm.7-4.5h-.3c-1.2 0-2 1.9-2 3.1 0 .7.1 1.1.5 1.1.6 0 1.2-1.2 1.4-2.2l.4-2zM43.8 31l.9-4.8h.4l-.9 4.8h-.4zm1.3-5.7c-.2 0-.3-.1-.2-.4 0-.2.2-.4.4-.4s.3.2.3.4c-.1.3-.3.4-.5.4zM45.4 31l.6-3.1c.2-.8.2-1.4.2-1.7h.4l-.1.8c.4-.7.8-.9 1.3-.9s.8.5.8.9c0 .3 0 .5-.1.7l-.6 3.3h-.4l.6-3.2c.1-.3.1-.5.1-.8 0-.3-.1-.6-.5-.6-.6 0-1.2.9-1.4 1.8l-.5 2.8h-.4zM49 31l.6-3.1c.2-.8.2-1.4.3-1.7h.4l-.2.8c.4-.7.8-.9 1.2-.9.5 0 .8.5.8.9.4-.7.9-.9 1.2-.9.5 0 .8.5.8.9 0 .3 0 .5-.1.8l-.6 3.2H53l.6-3.2c.1-.3.1-.5.1-.8 0-.3-.1-.6-.5-.6-.5 0-1.1.8-1.3 1.8l-.5 2.8H51l.6-3.2c0-.3.1-.5.1-.8 0-.3-.1-.6-.5-.6-.5 0-1.1.9-1.3 1.8l-.5 2.8H49zM56.9 30.7c-.3.2-.6.3-1 .3-.9 0-1.2-.8-1.2-1.6 0-1.3.7-3.3 2-3.3.6 0 .8.5.8 1 0 1.1-1 1.6-2.3 1.6 0 .1-.1.9 0 1.2.1.5.4.8.8.8s.6-.2.8-.3l.1.3zm.2-3.7c0-.4-.2-.6-.5-.6-.5 0-1 .6-1.3 1.8.9.1 1.8-.2 1.8-1.2zM57.7 31l.6-3.1c.2-.8.2-1.4.3-1.7h.4l-.2.8c.4-.7.8-.9 1.3-.9s.8.5.8.9c0 .3 0 .5-.1.7l-.6 3.3h-.4l.6-3.2c.1-.3.1-.5.1-.8 0-.3-.1-.6-.5-.6-.6 0-1.2.9-1.4 1.8l-.5 2.8h-.4zM63 25.1l-.2 1.1h.9l-.1.4h-.9l-.6 3.1c-.1.3-.1.6-.1.7 0 .2.1.3.3.3h.3v.3c-.1 0-.3.1-.4.1-.4 0-.6-.2-.6-.6 0-.2 0-.3.1-.8l.6-3.1h-.6l.1-.4h.6l.2-.8.4-.3zM65 31l.9-4.8h.4l-.9 4.8H65zm1.3-5.7c-.2 0-.3-.1-.2-.4 0-.2.2-.4.4-.4s.3.2.3.4c-.1.3-.3.4-.5.4zM66.6 31l.6-3.1c.2-.8.2-1.4.3-1.7h.4l-.2.8c.4-.7.8-.9 1.3-.9s.8.5.8.9c0 .3 0 .5-.1.7l-.6 3.3h-.4l.6-3.2c0-.3.1-.5.1-.8 0-.3-.1-.6-.5-.6-.6 0-1.2.9-1.4 1.8L67 31h-.4zM72.3 30.9c-.2.1-.5.1-.7.1-.9 0-1.2-.8-1.2-1.7 0-1.2.7-3.2 2.3-3.2.2 0 .3 0 .4.1l-.1.4c-.1 0-.2-.1-.4-.1-1.2 0-1.8 1.7-1.8 2.9 0 .8.2 1.4.9 1.4.2 0 .4 0 .6-.1v.2zM73.3 31.1c-.2 0-.3-.2-.3-.4s.2-.4.4-.4c.3 0 .3.2.3.4 0 .1-.2.4-.4.4z"/></g><g fill="#323232"><path d="M103.8 27.6l-.1-.3V26.3l-.1-.1H103.3v.1l-.2.1h-.1l-.1.1h-.1l-.1.1H102.4l-.1-.1v-.4l-.1-.1v-.2l-.1-.1H101.2c-.1 0-.3 0-.3.1h.1H100.7l-.1.1v.4l-.1.1V26.7c0 .1-.1.1-.1.1h-.7v-.1h-.1v-.2h-.1l-.1-.1v-.6l-.1-.1h-.1v-.1H99l-.1.1v.1l-.1.1h-.1s-.1 0-.1.1v.1c-.1.1 0-.1-.1.1-.1.1-.1.2-.1.2V26.7s-.1 0-.1.1v.2s.1 0 0 .1c0 .1-.1.2-.1.2v.1c0 .1.1.2.1.2l.1.1v.4s.1 0 .1.1v.1c0 .1.1.1 0 .2v.1s-.1.1-.1.2v.1h.1s0-.1.1 0v.1l.1.1v.1c0 .1-.1-.1 0 .1.1.1.1.2.1.2V29v.5l.1.1.1-.1.1-.1h.2l.1.1s.1 0 0 .1l-.1.1c0 .1-.1.2-.1.2v.1h.1l.1-.1.1-.1v-.1l.1-.1c.1 0 .1-.1.1-.1l.1-.1h.2l.1.1v.5l-.1.1h-.1v.1l-.1.1h.1v.4s.1.3.1.4c0 .1.1.1.1.2s.1.2.1.2l.1.2h.2l.1.1h.1v-.1l.1-.2v-.6c0-.2 0 0 .1-.2s0 0 0-.1.1-.1.1-.1l.2-.2v-.4s.1 0 .1-.1.1 0 .1 0h.2V30.1l.1-.1v-.1l.3.1.1-.2.1-.1v-.1s0-.1.1-.1h.1l.1-.1.1-.1.1-.1h.2V29h.1l.1-.1h.1V28.6h.1v-.1l.1-.1V28h.2l.2-.2v-.2zM105.9 21.8v-.1l-.1-.1-.1-.2-.1-.1v-.1h-.1c-.3-.5-1.9-2.1-1.9-2.1V19.4l-.1.2-.1.1c.1.3-.2.7-.2.7H102.4l-.1.1-.2.1-.1.1-.1.1-.1.1h-.1v.1l-.1.1h-.4l-.1-.1-.1-.1-.1-.1-.1-.1-.1-.1-.1-.1h-.7v-.1h-.2v.1l-.1.1h-.2l-.4-.1h-.1l-.1.1h-.5l-.1.1-.1.1h-.5l-.1.1-.2.1-.1.2-.2.1v.4l-.1.1-.1.2h-.1v.6h.2l.1.2.1.1v.1s.1.3.2 0v-1l.1-.1h.4l.1-.1.2-.1H98.7l.1-.1h.7l.1-.1h.1v.1H100l.2.1H102.1l.2.1h.2l.1.1.1.1h1l.1.1h.1l.1.1v.1s0 .1.1.1H105.2l.1.1.1.2.1.1.1.1v.2h.1l.1-.2v-.1l.1-.1.1-.1.1-.1.1-.1v-.1l.1-.2-.4-.3zM104.2 22.3h-.5l-.1.1v.5c-.2.5-.4.1-.4.1 0 .4-.7.2-.7.2 0 .3-.8.2-.8.2l-.1-.3V23.4h-.7c-.2 0-.2-.2-.2-.2-.3.2-.6-.2-.6-.2l-.2.1h-.1l-.1-.1v-.1h-.1l-.4.1V22.7l-.2-.1-.1-.1v-.4l-.1-.1h-.1l-.2.1h-.1c-.1 0-.1.1-.1.1h-.4c2.3 3.3 5.9 1.1 5.9 1.1.3-.1.6-.8.6-.8l-.1-.1-.1-.1zM101.7 20.6c.1.2.3 0 .3 0 .2-.2 1-.4 1-.4-.9-.5-1.3.4-1.3.4zM100.9 20.4c-.2-.4-.8-.3-.8-.3 0 .4.8.3.8.3zM103.4 19.5s.1-.1-.2-.6c0 0-.1-.1-.3-.4 0 0-.3-.4-.4-.7 0 0-.6-.8-.6-1.1 0 0-.6-1-.7-.1 0 0-.1.9.3 1 0 0 .3.2.5.1 0 0 .6.2.7.6 0 0 0 .3.3.5-.2 0 .4.3.4.7zM109 15.5h-.2c-.1-.5-.3-1.4-.9-1.6 0 0-1.3-.7-3-.5 0 0-.5.1-1.1.2l-5.3-.1h-.1c-.7-.2-1.3-.2-1.3-.2-1.7-.2-3 .5-3 .5-.8.3-.9 1.9-.9 1.9v.1H93l-.4-.1v.4s.3.1.6 0v-.2C93.4 18.7 95 19 95 19c1.8.8 3.5-1.1 3.5-1.1 1.1-.9 1.7-2.9 1.7-2.9v-.4l.2-.4c.2-.2 1-.1 1.2-.1h.1c.1.1.2.2.2.3v.1c0 .1-.1.4 0 .6 0 0 .7 2 1.8 2.9 0 0 1.7 1.9 3.5 1.1 0 0 1.7-.4 1.8-3.4.2 0 .5-.1.5-.1v-.4l-.5.3zm-7.1-1c.1-.7-1.4-.4-1.4-.4-.2 0-.5.3-.5.3v.1c-.1-.3-.5-.6-1-.8l4.2.1c-.6.1-1.1.3-1.3.7zM115.4 16.1l-.2-.2-.8-.1.2-.1h.8l-.3-.4h-.1l-.1-.1-.2-.2v-.2l-.2-.2v-.2l.1-.1h.1l-.1-.1v-.4s.1 0 0-.1-.1-.2-.1-.2V13.2H115.1c.1 0 .1.1.2 0h.2l.1-.1c-.2 0 0-.1-.2 0h-.1s.2.2-.2 0-1-.3-1-.3l.1-.2v-.1s-.3-1.5-1.7-2.2l-.3-.2-.1-.3v-.2l.1-.2v-.1c.2-.2.3-.4.5-.6 0-.1-.1-.1-.1-.2v-.1l-.1-.1c-.1-.1-.1-.3-.2-.4-.3-.5-.4-.4-.6-.9-.2-.5.4-.2-.5-.9-.8-.7-1.1-1.1-1.1-1.1v.3c-.1-.3-.2-.7-.4-1.4-.7-2.4-.8-1.1-1.4-1.7-.6-.6-1.9-.8-3.4-1.8s-.7-.2-1.7-.3-2.2 0-2.5 0c-.3 0-1.1.2-2.3.5-1.2.3-2.1.4-3.7.5-1.6.1-1.2.3-2.3.5-1.1.2-.6.1-1.6.6s-1 1.1-1 1.1l-.1 1s-.3.5-1.2 1.4c-.9.9-.3.4-.5 1.1-.2.7-.3.6-.6 1.2-.1.1-.1.3-.2.5l-.1.1v.1c0 .1-.1.2-.1.2.2.2.4.5.5.7v.1l.1.2v.3l-.2.4-.2.4c-1.4.9-1.8 2.8-1.8 2.8v.1l.1.2s-.6.2-1 .4-.2 0-.2 0l-.2-.1c-.2-.1 0 0-.2.1l.1.1.1.1h.1c.1 0 .1 0 .2-.1.1 0 .1 0 .3-.1H85v.4s0 .2-.1.3c-.1.1.1.2.1.2l.1.2v.1l.1.2v.1l-.1.1h.1l.1.1V16.5l-.2.2v.2l-.2.2-.1.1h-.1l-.3.5.2-.1H85.2l.2.2s-.4 0-.4.1c-.1 0-.4.1-.4.1s-.1.2-.2.3c0 .1-.1.1-.1.2v.1c-.2.4-.3.6-.3.8l-.2.2.2.1c.1.5.4.9.4.9l.1.1.1.1h.2l.3.1H86l.2-.1s.1 0 .3-.1c.1 0 .2-.1.2-.1h.3v.6l.1.1v.2l-.1.5-.1.1-.1.1-.1.1s-.1.1-.1.3l-.2.2-.3.2-.1.2s-.1.1-.1.2l-.1.1-.2.2-.1.1-.1.1-.1.3V24.8c0 .1.1.2.1.3 0 .1.1.2.1.2l.1.2.2.1.1.1c.1.1 0 .1 0 .1V26.7l.1.2.2.2.2.1.2.1.2.1.2.1.2.1.1.2.1.1.1.2.1.2.1.2.3.4-.1.2-.1.1-.1.3-.2.2c-.2.2-.2.1-.2.1s-.1.2-.3.2c-.2.1-.1.2-.1.2h.8l.2.1-.3.1s-.3.1-.4.1h-.5c-.2 0-.1 0-.3.1-.1 0 .1.1.1.1l.2.1.2.1h.8v.2l-.1.2-.2.1-.1.2-.1.1-.1.1-.1.2v.1l.2-.1.2-.1h.2l.3-.1s.1 0 .2-.1l.2-.2.1-.1.3-.2.1.2v.2l-.1.2-.2.4v.3c0 .1.1.2.2.3 0 .1.1.1.1.1l.2.1s.2.1.3.1h.3l-.2.2-.2.1s-.1.3-.1.4c-.1.1-.1.2-.1.3-.1.1-.1.2-.1.2l-.1.2v.1l.1.1.2.1h.3s.2.1.3 0h.7l.3-.1H91l.2-.1.2-.2.1-.1c.1-.1.2-.1.3-.2.1-.1.3-.1.3-.1l.2-.2.1-.1s.2-.2.3-.4c.1-.2 0 0 .1-.1s.1-.1.1-.2.1-.1.1-.2.1-.1.1-.1.1-.1.2-.3c.1-.2.1-.1.1-.1l.2-.1s.2-.2.4-.3c.1-.2.1-.1.1-.1l.2-.2.1-.1c.1-.1.1 0 .2-.2.1-.1.1 0 .2-.1s.3-.2.3-.2h.7c.1 0 .2.1.2.1l.1.1.1.1.1.2v.1l.2.2c-.1-.4-.3-2.2-.3-2.2.1-.4-.1-1.3-.1-1.3 0-.5-.4-2.8-.4-2.8-1-1-1.3-2.4-1.3-2.5V21.9l.1-.2.2-.1v-.1l-.1-.1v-.6c0-.1.1-.1.1-.1v-.3l-.1-.1v-.4l.2-.2.3-.1.2-.1h.1c-.1 0-.2-.1-.2-.2l-.2.1h-.2c-.1 0-.1-.1-.1-.1v-.2h.1c-.4-.4-.8-1.1-.9-2.4h-.1c-.2 0-.4-.1-.4-.1l-.1-.5.5.1h.2v-.1c0-.1.1-1.5.8-1.9l.1-.1.1-.1h.2l.3-.1h.1c.1 0 .2.1.2.1.1 0 .1 0 .2-.1l.1-.2h.3l.1-.1h.4l.1.1v.1h.2v-.1l.1-.2.1.1.2.2.1.1.1-.1s0-.2.1-.4l.1-.1.2-.2V13c0-.1.1-.1.1-.1l.2-.2.1-.1.1-.1.1-.1.1-.1v-.1c.6-.1.9-.2.9-.2 4.3.8 5.6-1.4 5.6-1.4 1.4 4.2 3.9 3.3 3.9 3.3l.1 1.2c.3.4.4.9.4 1.2l.6-.2v.5s-.3.1-.5.1c0 .5-.1.9-.2 1.2l.2 1.6.3.3.4.4s.1.4.1.9-.2.8-.4 1.1c-.2.3-.3.8-.3.8l-.6.4c.5 1.9-2 4.4-2 4.4s.2 1.7.2 2.1c0 .4.3.6.3.6l.8-.2s.3-.1 1-.4c.7-.3 1.1-.1 1.1-.1l.2-.1h1.3l.2-.1.1-.1v-.1l-.1-.1-.1-.1c-.1-.1-.1-.2-.1-.3-.1-.1-.1-.3-.1-.3h-.2l-.1-.1v-.1h.2c.1 0 .3-.1.3-.1l.2-.1s.1 0 .1-.1.2-.1.2-.2v-.3l-.1-.3-.1-.1V27l.1-.1.3.1.1.1s.1.1.2.1c.1.1.2.1.2.1l.2.1h.2l.2.1.2.1v-.1l-.1-.1-.1-.1-.1-.1-.1-.2-.2-.1-.1-.1v-.2h.8l.1-.1h.1-.8c-.1 0-.4-.1-.4-.1l-.2-.1.2-.1h.8s0-.1-.1-.2c-.2-.1-.3-.2-.3-.2s0 .1-.2-.1l-.2-.2-.1-.2-.1-.1-.1-.1.2-.3.1-.1.1-.1.1-.2.1-.1.1-.2.2-.1h.4l.2-.2.1-.2v-.9l.1-.1.2-.1.1-.1s0-.1.1-.1c0-.1.1-.1.1-.2v-.5l-.1-.3-.1-.1-.1-.1-.2-.2-.1-.1c-.1-.1-.1-.2-.1-.2l-.1-.1-.2-.1-.2-.2c-.1-.1-.1-.2-.1-.2l-.1-.1-1-.9-.1-.1-.1-.2v-.8h.5c.1 0 .3.1.3.1h1.6l.1-.1s.2-.3.3-.6c.4-.5-.1-1.1-.2-1.2z"/></g><path fill="#C94E27" d="M81 7.3c-1.3 0-3.1.6-4.2 2.1l-.3.4-.3-.3-.2-.2.3-1.9h-1c-1.9.8-3.9 1.1-6.4 1.3l-.4 2.1c.7.1 1.1.2 1.5.4.5.3.7.7.6 1.2 0 .4-.1.9-.2 1.4l-1 4.2-.1.1c-.8.5-1.3.8-1.5.9-.9.6-1.5.9-2.1.9-.4 0-.8-.2-1-.5-.2-.3-.3-.6-.3-1 0-.5.2-1.5.4-2.3l1.6-8.3H62l-.7 1.1-.3-.4c-1.3-1-2.7-1.2-4-1.2-6 0-9.3 5-9.3 9.7V17.8l-.6-.3c-.3-.2-.7-.3-1.1-.3-.8 0-1.5.4-1.8 1.2l-.3.6c-.3.7-.9.9-1.6 1.1-.7.2-1.4.2-1.9.2-.6 0-1.1-.1-1.5-.4l-.4-.3 9.9-10.3-.4-1.6c-6.8 0-8.1-.4-9.3-.4-4.4 0-5.8 1.9-5.8 3.8 0 1.3.5 1.8 1.6 1.9 1.5 0 1.7-.6 2.1-1.4.3-.8.8-2 2.5-2 .4 0 .9.1 1.7.2l.8.1-6.5 6.9c-1.3 1.3-2.6 2.1-3.3 2.5l-.3.2c-.8.4-1.7.4-2.1.4-.4 0-.8-.2-1-.5-.2-.3-.3-.6-.3-1 0-.5.2-1.5.4-2.3l1.6-8.3h-4.4L25 8.9l-.4-.3c-1.3-1-2.7-1.2-4-1.2-5.2 0-8.3 3.7-9.1 7.7-.8 1.8-1.5 2.8-2.1 3.4-.8.7-1.4 1-2 1-.4 0-.7-.1-.9-.4-.5-.3-.5-.6-.5-1 0-.5.1-1 .2-1.8L9.1.9H7.2c-1.8.6-3.7.9-6.2 1L.6 4c.6 0 1.1.1 1.4.4.4.3.6.7.6 1.1 0 .3-.1.8-.2 1.4L.3 17.4c-.3 1.5-.3 2-.3 2.5 0 1.7 1 2.8 3.7 2.8 1.8 0 3.7-.6 5.6-2.1l.3-.3.4-.4s.1 0 .1-.1l.2-.2c.2-.2.3-.3.4-.5l.5-.6.2.7c.8 2.4 2.8 3.4 5.2 3.4 1.9 0 3.4-.7 4.7-1.8l.4-.3.3.5c.9 1.4 2.3 1.7 3.8 1.7 1.8 0 3.7-.6 5.2-1.6l.5-.3.4 1.7c1.2-.1 2.5-.2 3.8-.2 1.2 0 2.3.1 3.5.2 1.1.1 2.3.2 3.4.2 3.2 0 4.7-1 5.2-2.3l.3-.8.4.7c1 1.6 2.7 2.4 4.7 2.4 1.9 0 3.4-.7 4.7-1.8l.4-.3.3.4c.9 1.4 2.3 1.7 3.8 1.7 2.1 0 4.1-.7 5.7-2l.9-.7-.5 2.3h5.8l1.2-6.8c.3-1.8.6-2.9.9-3.7.3-.7.8-1.2 1.5-1.2s1 .5 1.4.8c.4.3.8.6 1.5.6 2.2 0 2.8-1.4 2.9-2.5-.1-1.5-1.3-2.2-2.7-2.2zM22.4 16c-.4 1.4-.7 2.3-1.2 2.9-.4.6-1 .9-1.6.9-.7 0-1.3-.3-1.8-.8-.4-.5-.6-1.2-.6-2.1 0-.3.1-1.9.7-3.6.6-1.6 1.6-3.3 3.5-3.4.6 0 1.3.1 2 .5l.3.2-1.3 5.4zM59 16c-.4 1.4-.7 2.3-1.2 2.9-.4.6-1 .9-1.6.9-.7 0-1.3-.3-1.8-.8-.4-.5-.6-1.2-.6-2.1 0-.3.1-1.9.7-3.6.5-1.6 1.6-3.3 3.5-3.4.6 0 1.3.1 2 .5l.3.2L59 16z"/></svg>