<svg xmlns="http://www.w3.org/2000/svg" viewBox="0 0 131.6 67.2" enable-background="new 0 0 131.6 67.2"><g opacity=".8" fill="#fff"><path d="M22.8 11.2l-3.2 13.1-3.3-13.1h-5.9l6.5 22.6v22h5.3v-22l6.5-22.6zM40.2 11.2h-5.7l-6.1 44.6h5.4l1.3-8.1h4.6l1.2 8.1h5.5l-6.2-44.6zm-1.3 31.2h-3l1.5-10.7 1.5 10.7zM59.1 11.2v19l-4.4-19h-5.2v44.6h5.4V36.9l4.4 18.9h5.1V11.2zM85.2 11.2h-5.7l-4.2 14.3V11.2H70v44.6h5.3V41.5l4.2 14.3h5.7l-6.5-22.3zM101.1 16.5v-5.3h-13v44.6h13v-5.3h-7.7V36.2h7.7v-5.4h-7.7V16.5zM117.6 13.4c-1.4-1.4-3.2-2.2-5.3-2.2h-7.5v44.6h7.5c2.1 0 3.8-.7 5.3-2.2 1.5-1.4 2.2-3.2 2.2-5.3V18.6c0-2-.7-3.8-2.2-5.2zm-7.4 3.1h2.1c.6 0 1.1.2 1.5.6.4.4.6.9.6 1.5v29.7c0 .6-.2 1.1-.6 1.5-.4.4-.9.6-1.5.6h-2.1V16.5zM125.8 51.3c-.7.7-1 1.5-1 2.4 0 1 .3 1.8 1 2.4.7.7 1.5 1 2.4 1 1 0 1.8-.3 2.4-1 .6-.6 1-1.5 1-2.4 0-.9-.3-1.8-1-2.4-1.3-1.3-3.5-1.3-4.8 0zM131 61H6.1V6.1h119.1v41.1h5.9V0H0v67.2h131z"/></g></svg>