<svg xmlns="http://www.w3.org/2000/svg" viewBox="0 0 231.1 32.3" enable-background="new 0 0 231.1 32.3"><g opacity=".6" fill="#DCDCDC"><path d="M6.6 15c0 .7-.1 1.2-.2 1.7-.2.5-.4.8-.7 1.1-.3.3-.7.5-1.2.6-.5.1-1 .2-1.7.2H1.1v3.8H0V11.6h3c1.2 0 2.2.3 2.7.8.6.6.9 1.4.9 2.6zm-1.1 0c0-.5-.1-.9-.2-1.2s-.3-.5-.5-.7c-.2-.2-.5-.3-.8-.4-.3-.1-.7-.1-1.1-.1H1.1v5.1h1.6c.5 0 .9 0 1.2-.1.3-.1.6-.2.9-.4.2-.2.4-.5.5-.8.1-.4.2-.9.2-1.4zM15.2 18.3c0 .7-.1 1.2-.2 1.8-.1.5-.3 1-.6 1.4-.3.4-.6.7-1.1.9-.4.2-1 .3-1.6.3-.6 0-1.1-.1-1.6-.3-.4-.2-.8-.5-1.1-.9-.3-.4-.5-.8-.6-1.4-.1-.5-.2-1.1-.2-1.8 0-.6.1-1.2.2-1.8.1-.5.3-1 .6-1.4.3-.4.6-.7 1.1-.9s1-.3 1.6-.3c.6 0 1.1.1 1.6.3.4.2.8.5 1.1.9.3.4.5.8.6 1.4.2.6.2 1.2.2 1.8zm-1 0c0-.6 0-1-.1-1.5-.1-.4-.2-.8-.4-1.1-.2-.3-.4-.5-.7-.7s-.7-.2-1.1-.2c-.4 0-.8.1-1.1.2-.3.2-.6.4-.7.7-.2.3-.3.7-.4 1.1-.1.4-.1.9-.1 1.5 0 .5 0 1 .1 1.5.1.4.2.8.4 1.1.2.3.4.5.7.7.3.2.7.2 1.1.2.4 0 .8-.1 1.1-.2.3-.2.6-.4.7-.7.2-.3.3-.7.4-1.1 0-.4.1-.9.1-1.5zM24.9 22.4h-1l-2.1-6.8-2.1 6.8h-1l-1.9-8.2h1l1.5 6.7 2-6.7h.9l2 6.7 1.4-6.7h1l-1.7 8.2zM29.5 18.3c0 .6 0 1.1.1 1.6.1.4.2.8.4 1.1.2.3.4.5.7.6.3.1.7.2 1.1.2.2 0 .4 0 .6-.1.2 0 .4-.1.5-.2.2-.1.3-.2.5-.4.1-.1.3-.3.4-.5l.8.5c-.1.2-.3.4-.5.6-.2.2-.4.3-.6.5s-.5.2-.8.3c-.3.1-.6.1-1 .1-.5 0-1-.1-1.4-.2-.4-.2-.8-.4-1-.7-.3-.3-.5-.8-.6-1.3-.1-.5-.2-1.2-.2-2 0-.7.1-1.3.2-1.9.1-.5.3-1 .6-1.4.3-.4.6-.7 1-.9.4-.2.9-.3 1.5-.3.5 0 1 .1 1.4.2.4.2.7.4.9.7s.4.7.5 1.2c.1.5.2 1 .2 1.6v.7h-5.3zm4.3-.8c0-.9-.2-1.6-.5-2s-.8-.6-1.5-.6c-.4 0-.7.1-.9.2-.3.1-.5.3-.7.5s-.3.5-.4.8c-.1.3-.2.7-.2 1.2h4.2zM41.2 15.2c-.2-.1-.4-.1-.6-.1-.2 0-.5 0-.7.1l-.6.3c-.2.1-.4.3-.6.5l-.7.7v5.8h-1v-8.2h1v1.4c.2-.2.5-.4.7-.6s.4-.4.6-.5l.6-.3c.2-.1.4-.1.7-.1h.4s.2.1.4.1l-.2.9zM43.6 18.3c0 .6 0 1.1.1 1.6.1.4.2.8.4 1.1.2.3.4.5.7.6.3.1.7.2 1.1.2.2 0 .4 0 .6-.1.2 0 .4-.1.5-.2.2-.1.3-.2.5-.4.1-.1.3-.3.4-.5l.8.5c-.1.2-.3.4-.5.6-.2.2-.4.3-.6.5s-.5.2-.8.3c-.3.1-.6.1-1 .1-.5 0-1-.1-1.4-.2-.4-.2-.8-.4-1-.7-.3-.3-.5-.8-.6-1.3-.1-.5-.2-1.2-.2-2 0-.7.1-1.3.2-1.9.1-.5.3-1 .6-1.4.3-.4.6-.7 1-.9.4-.2.9-.3 1.5-.3.5 0 1 .1 1.4.2.4.2.7.4.9.7s.4.7.5 1.2c.1.5.2 1 .2 1.6v.7h-5.3zm4.3-.8c0-.9-.2-1.6-.5-2s-.8-.6-1.5-.6c-.4 0-.7.1-.9.2-.3.1-.5.3-.7.5s-.3.4-.4.7c-.1.3-.2.7-.2 1.2h4.2zM56.4 22.4v-.9c-.2.2-.3.3-.5.4-.2.1-.4.3-.6.4-.2.1-.4.2-.7.2-.2.1-.5.1-.7.1-.5 0-1-.1-1.3-.3-.4-.2-.7-.5-.9-.8-.3-.4-.4-.8-.6-1.3-.1-.5-.2-1.1-.2-1.8 0-.6.1-1.1.2-1.6s.3-1 .6-1.4.6-.7 1-1 .7-.4 1.3-.4c.5 0 .9.1 1.3.3.4.2.8.4 1.1.7v-4.1h1v11.6h-1zm0-6.5c-.4-.3-.8-.6-1.2-.7-.4-.2-.8-.3-1.1-.3-.3 0-.6.1-.9.2-.3.2-.5.4-.7.7-.2.3-.3.7-.4 1.1-.1.4-.2.9-.2 1.5 0 .5 0 1 .1 1.4s.2.8.4 1.1c.2.3.4.5.7.7s.6.2 1 .2c.2 0 .4 0 .7-.1l.6-.3c.2-.1.4-.2.6-.4.2-.1.4-.3.5-.5v-4.6zM71 18.3c0 .6-.1 1.2-.2 1.8s-.3 1-.6 1.4c-.3.4-.6.7-1 .9-.4.2-.9.3-1.4.3-.4 0-.8-.1-1.2-.3s-.8-.4-1.2-.8v.8h-1V10.8h1v4.3l.5-.5c.2-.1.4-.3.6-.4s.4-.2.7-.2c.2-.1.5-.1.7-.1.6 0 1 .1 1.4.3s.7.5 1 .9c.2.4.4.8.5 1.4.1.6.2 1.2.2 1.8zm-1.1 0c0-.5 0-1-.1-1.4-.1-.4-.2-.8-.4-1.1-.2-.3-.4-.5-.7-.7-.3-.2-.6-.2-1-.2s-.8.1-1.2.3c-.4.2-.8.5-1.1.9v4.6c.4.3.7.6 1.1.8s.8.3 1.2.3c.3 0 .6-.1.9-.2.3-.1.5-.3.7-.6.2-.3.4-.6.5-1.1s.1-1 .1-1.6zM72.3 24.4c.1.1.3.1.5.2s.4.1.5.1c.4 0 .7-.2 1-.5.3-.3.5-.8.8-1.4l.3-.8-3-7.8h1.1l2.4 6.5 2.5-6.5h1.1l-3.5 9c-.2.4-.3.8-.5 1.1-.2.3-.4.5-.6.7-.2.2-.4.3-.7.4-.2.1-.5.1-.8.1h-.7c-.1 0-.2 0-.3-.1-.1 0-.2-.1-.3-.1l.2-.9z"/></g><g fill="#DCDCDC" opacity=".6"><path d="M229.2 10.6v5.9l.1 1.3-3.3-7.2h-2v10.3h1.8V15l-.1-1.3 3.3 7.2h2.1V10.6zM216.5 12.1v-1.4H210v10.1h6.5v-1.5h-4.9v-3.1h4v-1.5h-4v-2.6zM142.1 20.5h.9v-8.7h2.7V11h-6.3v.8h2.7zM182.4 20.6h6v-1h-4.8V16h4v-1.1h-4v-3h4.8v-1h-6zM171.1 10.8c-3.3 0-3.6 3.8-3.6 5 0 1.5.4 5 3.6 5 1 0 2.1-.4 2.9-1v-4.2h-3.4v.9h2.3v2.7c-.5.3-1.2.5-1.9.5-2.1 0-2.4-2.5-2.4-3.9 0-1.2.2-4 2.4-4 1.1 0 1.6.5 1.9 1.2h1.1c-.3-1.5-1.7-2.2-2.9-2.2zM157.4 11H156l-3.1 9.5h1.1l.8-2.6h3.7l.8 2.6h1.1l-3-9.5zm-2.3 6l1.6-5.1 1.6 5.1h-3.2zM195.6 10.7v1.4h2.7v8.6h1.4v-8.6h2.7v-1.4zM125.8 17.8c.1 1.7 1.5 2.8 3.1 2.8 1.8 0 2.9-1 2.9-2.7 0-.9-.4-1.6-1.2-2.1l-2.1-.9c-.7-.3-1.5-.7-1.5-1.7s.9-1.5 1.8-1.5c1 0 1.7.3 1.9 1.3h.8c-.2-1.5-1.3-2.1-2.7-2.1-1.3 0-2.7.7-2.7 2.4 0 1.5 1 1.9 2.3 2.5.1.1.2.1.4.2.1 0 .2.1.2.1.9.4 1.9.8 1.9 2 0 1.1-.8 1.9-2.1 1.9-1.2 0-2-.7-2.3-2h-.7zM111.2 15.4v4.1l-2.5-2.6-2.1 1.2v6l1.6-.9v-4.1l2.4 2.6 2.1-1.2v-6zM96.5 20.6v-1.3l3.1 1.9v-1.3L96.5 18v-1.1l3.3 2v-1.3l-4.9-2.9v6.4l5 2.9v-1.3zM103 5.9l-1.2.7 2.4 1.3-4.2 2.5 1.5.9 4.2-2.5 2.3 1.4 1.2-.7zM103.4 1.8L115.9 9v14.4l-12.5 7.2L91 23.4V9l12.4-7.2m0-1.8l-14 8.1v16.2l14 8.1 14-8.1V8.1l-14-8.1z"/></g></svg>