<?xml version="1.0" encoding="utf-8"?>
<!-- Generator: Adobe Illustrator 18.1.1, SVG Export Plug-In . SVG Version: 6.00 Build 0)  -->
<!DOCTYPE svg PUBLIC "-//W3C//DTD SVG 1.1//EN" "http://www.w3.org/Graphics/SVG/1.1/DTD/svg11.dtd">
<svg version="1.1" id="Layer_1" xmlns="http://www.w3.org/2000/svg" xmlns:xlink="http://www.w3.org/1999/xlink" x="0px" y="0px"
	 viewBox="0 0 613.5 21.7" enable-background="new 0 0 613.5 21.7" xml:space="preserve">
<g>
	<path fill="#212121" d="M0,19.3l2.5-2.9c1.3,1.1,3,1.8,4.3,1.8c0.8,0,1.5-0.2,1.5-0.9c0-2.4-7.5-0.6-7.5-6.5c0-3.4,2.9-4.8,6-4.8
		c1.9,0,4.3,0.8,5.8,2.2L10.1,11c-1.3-1-2.3-1.5-3.3-1.5c-0.7,0-1.2,0.3-1.2,0.9c0,2.3,7.5,0.6,7.5,6.4c0,3.2-3,4.8-6.3,4.8
		C3.6,21.6,1.6,20.7,0,19.3z"/>
	<path fill="#212121" d="M13.9,13.7c0-5.9,3.7-7.9,6.9-7.9c3.4,0,6.4,2.1,6.4,8.3v0.9h-8.3c0.2,2,1,2.8,2.3,2.8
		c1.3,0,2.5-0.9,3.1-1.6l2.9,2.4c-1.4,1.7-3.3,2.9-6.2,2.9C17.2,21.6,13.9,19.5,13.9,13.7z M22.6,12.3c-0.1-2-0.8-2.6-1.8-2.6
		c-0.9,0-1.6,0.6-1.8,2.6H22.6z"/>
	<path fill="#212121" d="M34,19.6v1.6h-5.1V0.4H34v7.8c0.7-1.2,1.9-2.3,3.8-2.3c2.9,0,4.8,2.5,4.8,7.8c0,5.4-1.9,7.8-4.8,7.8
		C36.1,21.5,34.9,20.8,34,19.6z M37.5,13.7c0-2.5-0.3-3.6-1.7-3.6c-0.7,0-1.4,0.6-1.7,1v5.5c0.5,0.5,1,0.9,1.8,0.9
		C37,17.6,37.5,16.4,37.5,13.7z"/>
	<path fill="#212121" d="M43.3,17.4c0-3.4,3.4-5.1,8-5.9v-0.5c0-0.8-0.2-1.3-1.2-1.3c-1.4,0-3,0.8-4,1.4l-2.2-3
		c1.8-1.5,4.4-2.3,7.2-2.3c3.6,0,5.1,1.6,5.1,5.2v6.5c0,1.8,0.1,2.9,0.4,3.7h-5c-0.2-0.5-0.3-1.2-0.3-2.1c-1,1.4-2.3,2.2-4.3,2.2
		C45.1,21.5,43.3,20.4,43.3,17.4z M51.3,16.8v-2.7c-2.1,0.5-3,1.2-3,2.3c0,0.7,0.5,1.1,1.1,1.1C50.3,17.6,51,17.1,51.3,16.8z"/>
	<path fill="#212121" d="M57.4,19.3l2.5-2.9c1.3,1.1,3,1.8,4.3,1.8c0.8,0,1.5-0.2,1.5-0.9c0-2.4-7.5-0.6-7.5-6.5
		c0-3.4,2.9-4.8,6-4.8c1.9,0,4.3,0.8,5.8,2.2L67.5,11c-1.3-1-2.3-1.5-3.3-1.5c-0.7,0-1.2,0.3-1.2,0.9c0,2.3,7.5,0.6,7.5,6.4
		c0,3.2-3,4.8-6.3,4.8C61.1,21.6,59,20.7,57.4,19.3z"/>
	<path fill="#212121" d="M73,17.3V9.9h-2.1V6.2H73V1.1h5.1v5.1h3.2v3.7h-3.2V16c0,1.6,0.4,1.8,1.7,1.8c0.4,0,1.1-0.1,1.2-0.1v3.6
		c-0.3,0.1-1.9,0.2-3,0.2C73.8,21.5,73,20.1,73,17.3z"/>
	<path fill="#212121" d="M83,0.6h5.1v4.2H83V0.6z M83,6.2h5.1v15.1H83V6.2z"/>
	<path fill="#212121" d="M89.8,17.4c0-3.4,3.4-5.1,8-5.9v-0.5c0-0.8-0.2-1.3-1.2-1.3c-1.4,0-3,0.8-4,1.4l-2.2-3
		c1.8-1.5,4.4-2.3,7.2-2.3c3.6,0,5.1,1.6,5.1,5.2v6.5c0,1.8,0.1,2.9,0.4,3.7h-5c-0.2-0.5-0.3-1.2-0.3-2.1c-1,1.4-2.3,2.2-4.3,2.2
		C91.6,21.5,89.8,20.4,89.8,17.4z M97.8,16.8v-2.7c-2.1,0.5-3,1.2-3,2.3c0,0.7,0.5,1.1,1.1,1.1C96.8,17.6,97.4,17.1,97.8,16.8z"/>
	<path fill="#212121" d="M105.1,6.2h5.1v2c0.6-1,2.1-2.3,4.4-2.3c2,0,3.6,0.9,3.6,3.9v11.5h-5.1v-9.8c0-0.8-0.3-1.3-1-1.3
		c-0.7,0-1.5,0.6-1.9,1v10.2h-5.1V6.2z"/>
	<path fill="#212121" d="M126.3,17.4c0-3.4,3.4-5.1,8-5.9v-0.5c0-0.8-0.2-1.3-1.2-1.3c-1.4,0-3,0.8-4,1.4l-2.2-3
		c1.8-1.5,4.4-2.3,7.2-2.3c3.6,0,5.1,1.6,5.1,5.2v6.5c0,1.8,0.1,2.9,0.4,3.7h-5c-0.2-0.5-0.3-1.2-0.3-2.1c-1,1.4-2.3,2.2-4.3,2.2
		C128.1,21.5,126.3,20.4,126.3,17.4z M134.3,16.8v-2.7c-2.1,0.5-3,1.2-3,2.3c0,0.7,0.5,1.1,1.1,1.1
		C133.3,17.6,133.9,17.1,134.3,16.8z"/>
	<path fill="#212121" d="M141.7,0.4h5.1v20.9h-5.1V0.4z"/>
	<path fill="#212121" d="M154.5,19.6v1.6h-5.1V0.4h5.1v7.8c0.7-1.2,1.9-2.3,3.8-2.3c2.9,0,4.8,2.5,4.8,7.8c0,5.4-1.9,7.8-4.8,7.8
		C156.6,21.5,155.3,20.8,154.5,19.6z M157.9,13.7c0-2.5-0.3-3.6-1.7-3.6c-0.7,0-1.4,0.6-1.7,1v5.5c0.5,0.5,1,0.9,1.8,0.9
		C157.5,17.6,157.9,16.4,157.9,13.7z"/>
	<path fill="#212121" d="M164.8,6.2h5.1v2.3h0.1c0.6-1.2,1.7-2.6,3.9-2.6c0.1,0,0.2,0,0.2,0v4.6c-0.2,0-0.8-0.1-1.1-0.1
		c-1.5,0-2.5,0.6-3.1,1v9.8h-5.1V6.2z"/>
	<path fill="#212121" d="M174.4,13.7c0-5.9,3.7-7.9,6.9-7.9c3.4,0,6.4,2.1,6.4,8.3v0.9h-8.3c0.2,2,1,2.8,2.3,2.8
		c1.3,0,2.5-0.9,3.1-1.6l2.9,2.4c-1.4,1.7-3.3,2.9-6.2,2.9C177.6,21.6,174.4,19.5,174.4,13.7z M183.1,12.3c-0.1-2-0.8-2.6-1.8-2.6
		c-0.9,0-1.6,0.6-1.8,2.6H183.1z"/>
	<path fill="#212121" d="M188.7,13.7c0-5.9,3.6-7.9,6.9-7.9c4,0,5.5,2.2,6.2,5.2l-4.5,1c-0.3-1.7-0.8-2.3-1.7-2.3
		c-1.3,0-1.8,1.2-1.8,4c0,2.7,0.3,4.1,1.8,4.1c0.8,0,1.6-0.5,1.9-2.5l4.4,1c-0.6,2.8-2.4,5.2-6.3,5.2
		C192.1,21.6,188.7,19.6,188.7,13.7z"/>
	<path fill="#212121" d="M203.3,0.4h5.1v7.8c0.6-1,2.1-2.3,4.4-2.3c2,0,3.6,0.9,3.6,3.9v11.5h-5.1v-9.8c0-0.8-0.3-1.3-1-1.3
		c-0.7,0-1.5,0.6-1.9,1v10.2h-5.1V0.4z"/>
	<path fill="#212121" d="M219.9,17.3V9.9h-2.1V6.2h2.1V1.1h5.1v5.1h3.2v3.7H225V16c0,1.6,0.4,1.8,1.7,1.8c0.4,0,1.1-0.1,1.2-0.1v3.6
		c-0.3,0.1-1.9,0.2-3,0.2C220.7,21.5,219.9,20.1,219.9,17.3z"/>
	<path fill="#212121" d="M235.3,16.3c0-3.3,1.9-4.9,4.1-6.1c-0.6-1.5-1.1-3.1-1.1-4.8c0-3.2,2.2-5.3,5.8-5.3c3.9,0,5.3,2.3,5.3,4.5
		c0,3.2-2.1,4.9-4.3,6.2l0.8,1.2c0.6,0.8,1.1,1.4,1.7,2.1c0.4-1,0.6-2.3,0.7-3.6h4.3c-0.3,2-0.7,4.2-1.6,6.1
		c0.9,0.4,1.8,0.7,2.9,0.8v4.3c-2.4-0.1-4.3-0.5-5.9-1.4c-1.4,0.9-3.1,1.5-5.3,1.5C237.8,21.7,235.3,19.6,235.3,16.3z M244.6,17.6
		c-0.8-0.8-1.5-1.7-2.3-2.8c-0.3-0.4-0.7-0.9-1.1-1.5c-0.6,0.6-0.9,1.3-0.9,2.2c0,1.7,1.1,2.4,2.5,2.4C243.4,18,244,17.9,244.6,17.6
		z M245.1,4.8c0-0.6-0.3-1.3-1-1.3c-0.6,0-1.2,0.4-1.2,1.5c0,0.8,0.3,1.8,0.6,2.8C244.4,7.1,245.1,6.1,245.1,4.8z"/>
	<path fill="#212121" d="M261,13.8c0-5.4,1.9-7.9,4.8-7.9c1.7,0,2.9,0.7,3.8,1.9V0.4h5.1v17.2c0,1.8,0.1,2.9,0.4,3.7h-5.2
		c-0.2-0.4-0.3-1.5-0.3-1.9c-0.7,1.1-1.9,2.1-3.8,2.1C262.8,21.5,261,19.2,261,13.8z M269.5,16.6V11c-0.5-0.5-1-0.9-1.8-0.9
		c-1.3,0-1.7,1-1.7,3.6c0,2.5,0.3,3.8,1.7,3.8C268.5,17.6,269.1,17,269.5,16.6z"/>
	<path fill="#212121" d="M277,17.7V6.2h5.1v9.9c0,0.8,0.3,1.3,1,1.3c0.7,0,1.4-0.5,1.9-1V6.2h5.1v15.1H285v-2
		c-0.6,1-2.2,2.3-4.4,2.3C278.5,21.6,277,20.7,277,17.7z"/>
	<path fill="#212121" d="M292.5,6.2h5.1v2c0.6-1,2.1-2.3,4.4-2.3c2,0,3.6,0.9,3.6,3.9v11.5h-5.1v-9.8c0-0.8-0.3-1.3-1-1.3
		c-0.7,0-1.5,0.6-1.9,1v10.2h-5.1V6.2z"/>
	<path fill="#212121" d="M307.3,13.7c0-5.9,3.6-7.9,6.9-7.9c4,0,5.5,2.2,6.2,5.2l-4.5,1c-0.3-1.7-0.8-2.3-1.7-2.3
		c-1.3,0-1.8,1.2-1.8,4c0,2.7,0.3,4.1,1.8,4.1c0.8,0,1.6-0.5,1.9-2.5l4.4,1c-0.6,2.8-2.4,5.2-6.3,5.2
		C310.6,21.6,307.3,19.6,307.3,13.7z"/>
	<path fill="#212121" d="M320.9,17.4c0-3.4,3.4-5.1,8-5.9v-0.5c0-0.8-0.2-1.3-1.2-1.3c-1.4,0-3,0.8-4,1.4l-2.2-3
		c1.8-1.5,4.4-2.3,7.2-2.3c3.6,0,5.1,1.6,5.1,5.2v6.5c0,1.8,0.1,2.9,0.4,3.7h-5c-0.2-0.5-0.3-1.2-0.3-2.1c-1,1.4-2.3,2.2-4.3,2.2
		C322.6,21.5,320.9,20.4,320.9,17.4z M328.8,16.8v-2.7c-2.1,0.5-3,1.2-3,2.3c0,0.7,0.5,1.1,1.1,1.1
		C327.9,17.6,328.5,17.1,328.8,16.8z"/>
	<path fill="#212121" d="M336.1,6.2h5.1v2c0.6-1,2.1-2.3,4.4-2.3c2,0,3.6,0.9,3.6,3.9v11.5h-5.1v-9.8c0-0.8-0.3-1.3-1-1.3
		c-0.7,0-1.5,0.6-1.9,1v10.2h-5.1V6.2z"/>
	<path fill="#212121" d="M363.3,19.6v1.6h-5.1V0.4h5.1v7.8c0.7-1.2,1.9-2.3,3.8-2.3c2.9,0,4.8,2.5,4.8,7.8c0,5.4-1.9,7.8-4.8,7.8
		C365.4,21.5,364.2,20.8,363.3,19.6z M366.8,13.7c0-2.5-0.3-3.6-1.7-3.6c-0.7,0-1.4,0.6-1.7,1v5.5c0.5,0.5,1,0.9,1.8,0.9
		C366.3,17.6,366.8,16.4,366.8,13.7z"/>
	<path fill="#212121" d="M373.6,6.2h5.1v2.3h0.1c0.6-1.2,1.7-2.6,3.9-2.6c0.1,0,0.2,0,0.2,0v4.6c-0.2,0-0.8-0.1-1.1-0.1
		c-1.5,0-2.5,0.6-3.1,1v9.8h-5.1V6.2z"/>
	<path fill="#212121" d="M383.4,13.7c0-5.9,3.5-7.9,7-7.9c3.5,0,7,2,7,7.9c0,5.8-3.5,7.8-7,7.8S383.4,19.6,383.4,13.7z M392.3,13.7
		c0-2.6-0.4-3.9-1.9-3.9c-1.4,0-1.9,1.1-1.9,3.9c0,2.7,0.4,4,1.9,4C391.8,17.8,392.3,16.6,392.3,13.7z"/>
	<path fill="#212121" d="M397.4,6.2h5l0.7,3.9c0.3,1.4,0.4,2.3,0.7,4.5h0.1c0.3-2.2,0.5-3,0.8-4.5l0.8-3.9h4.2l0.8,3.8
		c0.3,1.4,0.5,2.4,0.8,4.6h0.1c0.3-2.1,0.4-3.1,0.7-4.5l0.7-3.8h4.3l-3.4,15.1h-4.6l-1.8-8.2h-0.1l-1.8,8.2h-4.6L397.4,6.2z"/>
	<path fill="#212121" d="M418.1,6.2h5.1v2c0.6-1,2.1-2.3,4.4-2.3c2,0,3.6,0.9,3.6,3.9v11.5h-5.1v-9.8c0-0.8-0.3-1.3-1-1.3
		c-0.7,0-1.5,0.6-1.9,1v10.2h-5.1V6.2z"/>
</g>
<g>
	<path fill="#212121" d="M444.2,10.2h4.1c1.7,0,3.6,0.4,3.6,2.8c0,1.7-0.9,2.3-1.8,2.6v0c1.2,0.2,2,0.8,2,2.7c0,2.4-2,3-3.7,3h-4.1
		V10.2z M448.1,14.7c0.8,0,1.2-0.3,1.2-1.1c0-0.8-0.4-1.1-1.2-1.1h-1.2v2.2H448.1z M448.1,19.1c0.9,0,1.3-0.5,1.3-1.3
		c0-0.9-0.4-1.3-1.3-1.3h-1.2v2.6H448.1z"/>
	<path fill="#212121" d="M454.5,10.2h6.7v2.3h-3.9v1.9h2.8v2.2h-2.8V19h4.1v2.3h-6.9V10.2z"/>
	<path fill="#212121" d="M463,18.8l2.2-1.1c0.5,0.8,1.2,1.6,2.2,1.6c0.8,0,1.2-0.4,1.2-1c0-0.7-0.8-1.1-1.8-1.5
		c-1.5-0.6-3.4-1.3-3.4-3.6c0-2,1.6-3.3,3.8-3.3c2,0,3.2,1.1,3.9,2.5l-2.1,1.2c-0.5-0.9-1.1-1.5-1.9-1.5c-0.7,0-1,0.4-1,0.8
		c0,0.7,0.7,1,1.6,1.4c1.5,0.6,3.5,1.3,3.5,3.7c0,1.7-1.3,3.3-3.9,3.3C465,21.5,463.8,20.4,463,18.8z"/>
	<path fill="#212121" d="M473.6,10.2h3.5c2.1,0,4.1,0.8,4.1,3.8c0,3.2-2.2,3.8-4.1,3.8h-0.7v3.5h-2.7V10.2z M477.1,15.6
		c1.1,0,1.4-0.5,1.4-1.6c0-1-0.3-1.5-1.4-1.5h-0.8v3.1H477.1z"/>
	<path fill="#212121" d="M483,15.7c0-4.1,2.2-5.8,4.6-5.8c2.4,0,4.6,1.7,4.6,5.8s-2.2,5.8-4.6,5.8C485.1,21.5,483,19.8,483,15.7z
		 M489.3,15.7c0-2.2-0.6-3.4-1.8-3.4c-1.2,0-1.8,1.2-1.8,3.4s0.6,3.5,1.8,3.5C488.8,19.2,489.3,18,489.3,15.7z"/>
	<path fill="#212121" d="M494.4,10.2h2.8v4.3c0.2-0.4,0.6-1.1,0.9-1.5l1.6-2.8h3l-2.9,4.4l3.2,6.7h-3l-2-4.3l-0.8,1v3.3h-2.8V10.2z"
		/>
	<path fill="#212121" d="M504.8,10.2h6.7v2.3h-3.9v1.9h2.8v2.2h-2.8V19h4.1v2.3h-6.9V10.2z"/>
	<path fill="#212121" d="M518.5,10.2h3.6c2.4,0,4,1,4,3.7c0,1.4-0.6,2.4-1.7,2.9l2,4.5h-2.9l-1.7-3.8h-0.6v3.8h-2.7V10.2z M522,15.4
		c0.9,0,1.4-0.4,1.4-1.5c0-1.1-0.5-1.4-1.4-1.4h-0.8v2.9H522z"/>
	<path fill="#212121" d="M528.6,10.2h6.7v2.3h-3.9v1.9h2.8v2.2h-2.8V19h4.1v2.3h-6.9V10.2z"/>
	<path fill="#212121" d="M539.6,21.3H537l3.2-11.1h2.7l3.2,11.1h-2.8l-0.5-1.9H540L539.6,21.3z M542.2,16.4
		c-0.3-1.1-0.5-1.8-0.7-2.8h0c-0.2,1-0.4,1.7-0.7,2.8l-0.2,0.8h1.8L542.2,16.4z"/>
	<path fill="#212121" d="M548.1,10.2h2.8V19h4v2.3h-6.8V10.2z"/>
	<path fill="#212121" d="M561.1,10.2h6.7v2.3h-3.9v1.9h2.8v2.2h-2.8V19h4.1v2.3h-6.9V10.2z"/>
	<path fill="#212121" d="M569.6,18.8l2.2-1.1c0.5,0.8,1.2,1.6,2.2,1.6c0.8,0,1.2-0.4,1.2-1c0-0.7-0.8-1.1-1.8-1.5
		c-1.5-0.6-3.4-1.3-3.4-3.6c0-2,1.6-3.3,3.8-3.3c2,0,3.2,1.1,3.9,2.5l-2.1,1.2c-0.5-0.9-1.1-1.5-1.9-1.5c-0.7,0-1,0.4-1,0.8
		c0,0.7,0.7,1,1.6,1.4c1.5,0.6,3.5,1.3,3.5,3.7c0,1.7-1.3,3.3-3.9,3.3C571.7,21.5,570.4,20.4,569.6,18.8z"/>
	<path fill="#212121" d="M581.9,12.5h-2.5v-2.3h7.9v2.3h-2.5v8.8h-2.8V12.5z"/>
	<path fill="#212121" d="M590,21.3h-2.6l3.2-11.1h2.7l3.2,11.1h-2.8l-0.5-1.9h-2.8L590,21.3z M592.6,16.4c-0.3-1.1-0.5-1.8-0.7-2.8
		h0c-0.2,1-0.4,1.7-0.7,2.8l-0.2,0.8h1.8L592.6,16.4z"/>
	<path fill="#212121" d="M599.3,12.5h-2.5v-2.3h7.9v2.3h-2.5v8.8h-2.8V12.5z"/>
	<path fill="#212121" d="M606.6,10.2h6.7v2.3h-3.9v1.9h2.8v2.2h-2.8V19h4.1v2.3h-6.9V10.2z"/>
</g>
</svg>
