<?xml version="1.0" encoding="utf-8"?>
<!-- Generator: Adobe Illustrator 18.1.1, SVG Export Plug-In . SVG Version: 6.00 Build 0)  -->
<!DOCTYPE svg PUBLIC "-//W3C//DTD SVG 1.1//EN" "http://www.w3.org/Graphics/SVG/1.1/DTD/svg11.dtd">
<svg version="1.1" id="Layer_1" xmlns="http://www.w3.org/2000/svg" xmlns:xlink="http://www.w3.org/1999/xlink" x="0px" y="0px"
	 viewBox="0 0 169.2 20.5" enable-background="new 0 0 169.2 20.5" xml:space="preserve">
<g>
	<g>
		<path fill="#FDFDFE" d="M26.2,12.9h5.2v1.4h-3.6V16h3v1.3h-3v3h-1.6V12.9z"/>
		<path fill="#FDFDFE" d="M34.5,14.8c1.7,0,2.8,1.1,2.8,2.8c0,1.7-1.1,2.8-2.8,2.8c-1.7,0-2.8-1.1-2.8-2.8
			C31.8,15.9,32.9,14.8,34.5,14.8z M34.5,19.3c1,0,1.3-0.8,1.3-1.7c0-0.8-0.3-1.7-1.3-1.7c-1,0-1.3,0.8-1.3,1.7
			C33.2,18.4,33.6,19.3,34.5,19.3z"/>
		<path fill="#FDFDFE" d="M38.2,15h1.4v0.8l0,0c0.3-0.6,1-0.8,1.6-0.8c1.5,0,1.9,0.8,1.9,2.2v3.2h-1.4v-3c0-0.8-0.3-1.3-0.9-1.3
			c-0.8,0-1.1,0.4-1.1,1.5v2.8h-1.4V15z"/>
		<path fill="#FDFDFE" d="M48.1,19.6L48.1,19.6c-0.3,0.6-0.9,0.8-1.6,0.8c-1.6,0-2.4-1.4-2.4-2.9c0-1.4,0.8-2.8,2.4-2.8
			c0.6,0,1.3,0.3,1.6,0.8l0,0l0,0v-2.7h1.4v7.4h-1.4L48.1,19.6L48.1,19.6z M46.8,15.9c-0.9,0-1.3,0.8-1.3,1.7c0,0.8,0.4,1.7,1.3,1.7
			c0.9,0,1.3-0.8,1.3-1.7C48.1,16.7,47.8,15.9,46.8,15.9z"/>
		<path fill="#FDFDFE" d="M51.8,18.5c0,0.7,0.5,0.9,1.1,0.9c0.4,0,0.9-0.2,0.9-0.7c0-0.4-0.6-0.6-1.7-0.8c-0.8-0.2-1.7-0.5-1.7-1.4
			c0-1.4,1.2-1.7,2.3-1.7c1.2,0,2.2,0.4,2.4,1.7h-1.4c0-0.6-0.5-0.8-1-0.8c-0.3,0-0.8,0.1-0.8,0.5c0,0.5,0.8,0.6,1.7,0.8
			c0.8,0.2,1.7,0.5,1.7,1.5c0,1.4-1.2,1.9-2.5,1.9c-1.3,0-2.5-0.4-2.5-1.9H51.8z"/>
		<path fill="#FDFDFE" d="M62.7,19.6L62.7,19.6c-0.3,0.6-0.9,0.8-1.6,0.8c-1.6,0-2.4-1.4-2.4-2.9c0-1.4,0.8-2.8,2.4-2.8
			c0.6,0,1.3,0.3,1.6,0.8l0,0l0,0v-2.7h1.4v7.4h-1.4L62.7,19.6L62.7,19.6z M61.3,15.9c-0.9,0-1.3,0.8-1.3,1.7c0,0.8,0.4,1.7,1.3,1.7
			c0.9,0,1.3-0.8,1.3-1.7C62.6,16.7,62.3,15.9,61.3,15.9z"/>
		<path fill="#FDFDFE" d="M66.3,17.9c0,0.9,0.5,1.4,1.3,1.4c0.6,0,1.1-0.3,1.2-0.7H70c-0.4,1.3-1.3,1.8-2.5,1.8
			c-1.7,0-2.7-1.2-2.7-2.8c0-1.6,1.1-2.8,2.7-2.8c1.8,0,2.7,1.5,2.6,3.1H66.3z M68.7,17c-0.2-0.8-0.4-1.1-1.2-1.1
			c-0.9,0-1.2,0.8-1.2,1.1H68.7z"/>
		<path fill="#FDFDFE" d="M72.1,18.5c0,0.7,0.5,0.9,1.1,0.9c0.4,0,0.9-0.2,0.9-0.7c0-0.4-0.6-0.6-1.7-0.8c-0.8-0.2-1.7-0.5-1.7-1.4
			c0-1.4,1.2-1.7,2.3-1.7c1.2,0,2.2,0.4,2.4,1.7h-1.4c0-0.6-0.5-0.8-1-0.8c-0.3,0-0.8,0.1-0.8,0.5c0,0.5,0.8,0.6,1.7,0.8
			c0.8,0.2,1.7,0.5,1.7,1.5c0,1.4-1.2,1.9-2.5,1.9c-1.3,0-2.5-0.4-2.5-1.9H72.1z"/>
		<path fill="#FDFDFE" d="M79.4,15h1.4v0.8l0,0c0.4-0.5,0.9-0.8,1.6-0.8c0.7,0,1.3,0.3,1.5,0.8c0.3-0.4,0.8-0.8,1.6-0.8
			c1.1,0,1.9,0.5,1.9,1.9v3.5H86v-3c0-0.7-0.1-1.3-0.9-1.3c-0.8,0-1,0.7-1,1.4v3h-1.4v-3c0-0.6,0-1.4-0.8-1.4c-0.3,0-1,0.2-1,1.3v3
			h-1.4L79.4,15L79.4,15z"/>
		<path fill="#FDFDFE" d="M89.8,17.9c0,0.9,0.5,1.4,1.3,1.4c0.6,0,1.1-0.3,1.2-0.7h1.3c-0.4,1.3-1.3,1.8-2.5,1.8
			c-1.7,0-2.7-1.2-2.7-2.8c0-1.6,1.1-2.8,2.7-2.8c1.8,0,2.7,1.5,2.6,3.1H89.8z M92.2,17c-0.2-0.8-0.4-1.1-1.2-1.1
			c-0.9,0-1.2,0.8-1.2,1.1H92.2z M91.2,14.3h-1l1-1.4h1.6L91.2,14.3z"/>
		<path fill="#FDFDFE" d="M98.4,19.6L98.4,19.6c-0.3,0.6-0.9,0.8-1.6,0.8c-1.6,0-2.4-1.4-2.4-2.9c0-1.4,0.8-2.8,2.4-2.8
			c0.6,0,1.3,0.3,1.6,0.8l0,0l0,0v-2.7h1.4v7.4h-1.4L98.4,19.6L98.4,19.6z M97.2,15.9c-0.9,0-1.3,0.8-1.3,1.7c0,0.8,0.4,1.7,1.3,1.7
			c0.9,0,1.3-0.8,1.3-1.7C98.4,16.7,98.1,15.9,97.2,15.9z"/>
		<path fill="#FDFDFE" d="M102.4,14.1H101v-1.2h1.4V14.1z M100.9,15h1.4v5.3h-1.4V15z"/>
		<path fill="#FDFDFE" d="M103.4,16.6c0.1-1.4,1.3-1.8,2.5-1.8c1.1,0,2.4,0.3,2.4,1.5v2.8c0,0.5,0.1,0.9,0.2,1.2H107
			c-0.1-0.2-0.1-0.3-0.1-0.5c-0.4,0.5-1.2,0.7-1.8,0.7c-1,0-1.8-0.5-1.8-1.6c0-1.2,0.9-1.5,1.8-1.6c0.9-0.2,1.7-0.1,1.7-0.7
			c0-0.6-0.4-0.8-0.9-0.8c-0.6,0-0.9,0.3-0.9,0.8L103.4,16.6L103.4,16.6z M106.8,17.7c-0.3,0.3-0.8,0.3-1.2,0.3
			c-0.4,0.1-0.8,0.3-0.8,0.8c0,0.5,0.4,0.7,0.9,0.7c1.2,0,1.2-0.9,1.2-1.3L106.8,17.7L106.8,17.7z"/>
		<path fill="#FDFDFE" d="M110.5,18.5c0,0.7,0.5,0.9,1.1,0.9c0.4,0,0.9-0.2,0.9-0.7c0-0.4-0.6-0.6-1.7-0.8c-0.8-0.2-1.7-0.5-1.7-1.4
			c0-1.4,1.2-1.7,2.3-1.7c1.2,0,2.2,0.4,2.4,1.7h-1.4c0-0.6-0.5-0.8-1-0.8c-0.3,0-0.8,0.1-0.8,0.5c0,0.5,0.8,0.6,1.7,0.8
			c0.8,0.2,1.7,0.5,1.7,1.5c0,1.4-1.2,1.9-2.5,1.9c-1.3,0-2.5-0.4-2.5-1.9H110.5z"/>
		<path fill="#FDFDFE" d="M121.6,19.6L121.6,19.6c-0.3,0.6-0.9,0.8-1.6,0.8c-1.6,0-2.4-1.4-2.4-2.9c0-1.4,0.8-2.8,2.4-2.8
			c0.6,0,1.3,0.3,1.6,0.8l0,0l0,0v-2.7h1.4v7.4h-1.4L121.6,19.6L121.6,19.6z M120.2,15.9c-0.9,0-1.3,0.8-1.3,1.7
			c0,0.8,0.4,1.7,1.3,1.7c0.9,0,1.3-0.8,1.3-1.7C121.5,16.7,121.3,15.9,120.2,15.9z"/>
		<path fill="#FDFDFE" d="M129,20.3h-1.4v-0.8l0,0c-0.3,0.6-1,0.8-1.6,0.8c-1.5,0-1.9-0.8-1.9-2.2v-3.3h1.4v3c0,0.8,0.3,1.3,0.9,1.3
			c0.8,0,1.1-0.4,1.1-1.5v-2.8h1.4V20.3z"/>
		<path fill="#FDFDFE" d="M137.3,15.4c-0.1-0.8-0.8-1.3-1.6-1.3c-1.4,0-2,1.3-2,2.5c0,1.3,0.5,2.5,2,2.5c1,0,1.5-0.7,1.7-1.6h1.6
			c-0.2,1.9-1.4,3-3.2,3c-2.3,0-3.6-1.7-3.6-3.8c0-2.2,1.4-3.9,3.6-3.9c1.6,0,3,0.9,3.2,2.6L137.3,15.4L137.3,15.4z"/>
		<path fill="#FDFDFE" d="M139.9,16.6c0.1-1.4,1.3-1.8,2.5-1.8c1.1,0,2.4,0.3,2.4,1.5v2.8c0,0.5,0.1,0.9,0.2,1.2h-1.5
			c-0.1-0.2-0.1-0.3-0.1-0.5c-0.4,0.5-1.2,0.7-1.8,0.7c-1,0-1.8-0.5-1.8-1.6c0-1.2,0.9-1.5,1.8-1.6c0.9-0.2,1.7-0.1,1.7-0.7
			c0-0.6-0.4-0.8-0.9-0.8c-0.6,0-0.9,0.3-0.9,0.8L139.9,16.6L139.9,16.6z M143.3,17.7c-0.3,0.3-0.8,0.3-1.2,0.3
			c-0.4,0.1-0.8,0.3-0.8,0.8c0,0.5,0.4,0.7,0.9,0.7c1.2,0,1.2-0.9,1.2-1.3L143.3,17.7L143.3,17.7z"/>
		<path fill="#FDFDFE" d="M145.9,15h1.4v0.8l0,0c0.3-0.6,1-0.8,1.6-0.8c1.5,0,1.9,0.8,1.9,2.2v3.2h-1.4v-3c0-0.8-0.3-1.3-0.9-1.3
			c-0.8,0-1.1,0.4-1.1,1.5v2.8h-1.4V15z"/>
		<path fill="#FDFDFE" d="M151.9,16.6c0.1-1.4,1.3-1.8,2.5-1.8c1.1,0,2.4,0.3,2.4,1.5v2.8c0,0.5,0.1,0.9,0.2,1.2h-1.5
			c-0.1-0.2-0.1-0.3-0.1-0.5c-0.4,0.5-1.2,0.7-1.8,0.7c-1,0-1.8-0.5-1.8-1.6c0-1.2,0.9-1.5,1.8-1.6c0.9-0.2,1.7-0.1,1.7-0.7
			c0-0.6-0.4-0.8-0.9-0.8c-0.6,0-0.9,0.3-0.9,0.8L151.9,16.6L151.9,16.6z M155.3,17.7c-0.3,0.3-0.8,0.3-1.2,0.3
			c-0.4,0.1-0.8,0.3-0.8,0.8c0,0.5,0.4,0.7,0.9,0.7c1.2,0,1.2-0.9,1.2-1.3L155.3,17.7L155.3,17.7z"/>
		<path fill="#FDFDFE" d="M161.7,19.6L161.7,19.6c-0.3,0.6-0.9,0.8-1.6,0.8c-1.6,0-2.4-1.4-2.4-2.9c0-1.4,0.8-2.8,2.4-2.8
			c0.6,0,1.3,0.3,1.6,0.8l0,0l0,0v-2.7h1.4v7.4h-1.4L161.7,19.6L161.7,19.6z M160.4,15.9c-0.9,0-1.3,0.8-1.3,1.7
			c0,0.8,0.4,1.7,1.3,1.7c0.9,0,1.3-0.8,1.3-1.7C161.7,16.7,161.3,15.9,160.4,15.9z"/>
		<path fill="#FDFDFE" d="M164.1,16.6c0.1-1.4,1.3-1.8,2.5-1.8c1.1,0,2.4,0.3,2.4,1.5v2.8c0,0.5,0.1,0.9,0.2,1.2h-1.5
			c-0.1-0.2-0.1-0.3-0.1-0.5c-0.4,0.5-1.2,0.7-1.8,0.7c-1,0-1.8-0.5-1.8-1.6c0-1.2,0.9-1.5,1.8-1.6c0.9-0.2,1.7-0.1,1.7-0.7
			c0-0.6-0.4-0.8-0.9-0.8c-0.6,0-0.9,0.3-0.9,0.8L164.1,16.6L164.1,16.6z M167.5,17.7c-0.3,0.3-0.8,0.3-1.2,0.3
			c-0.4,0.1-0.8,0.3-0.8,0.8c0,0.5,0.4,0.7,0.9,0.7c1.2,0,1.2-0.9,1.2-1.3L167.5,17.7L167.5,17.7z"/>
	</g>
	<g>
		<g>
			<path fill="#FDFDFE" d="M30.9,2.6c-0.1-0.8-0.8-1.3-1.6-1.3c-1.4,0-2,1.3-2,2.5c0,1.3,0.5,2.5,2,2.5c1,0,1.5-0.7,1.7-1.6h1.6
				c-0.2,1.9-1.4,3-3.2,3c-2.3,0-3.6-1.7-3.6-3.8c-0.1-2.3,1.3-4,3.6-4c1.6,0,3,0.9,3.2,2.6H30.9z"/>
			<path fill="#FDFDFE" d="M33.4,3.8C33.5,2.5,34.7,2,35.9,2c1.1,0,2.4,0.3,2.4,1.5v2.8c0,0.5,0.1,0.9,0.2,1.2H37
				c-0.1-0.2-0.1-0.3-0.1-0.5c-0.4,0.5-1.2,0.7-1.8,0.7c-1,0-1.8-0.5-1.8-1.6c0-1.2,0.9-1.5,1.8-1.6c0.9-0.2,1.7-0.1,1.7-0.7
				c0-0.6-0.4-0.8-0.9-0.8c-0.6,0-0.9,0.3-0.9,0.8L33.4,3.8L33.4,3.8z M36.8,4.9c-0.3,0.3-0.8,0.3-1.2,0.3c-0.4,0.1-0.8,0.3-0.8,0.8
				c0,0.5,0.4,0.7,0.9,0.7c1.2,0,1.2-0.9,1.2-1.3L36.8,4.9L36.8,4.9z"/>
			<path fill="#FDFDFE" d="M39.3,2.2h1.4V3l0,0c0.3-0.6,1-0.8,1.6-0.8c1.5,0,1.9,0.8,1.9,2.2v3.3h-1.4V4.5c0-0.8-0.3-1.3-0.9-1.3
				c-0.8,0-1.1,0.4-1.1,1.5v2.8h-1.4V2.2z"/>
			<path fill="#FDFDFE" d="M45.4,3.8C45.5,2.5,46.7,2,47.9,2c1.1,0,2.4,0.3,2.4,1.5v2.8c0,0.5,0.1,0.9,0.2,1.2H49
				c-0.1-0.2-0.1-0.3-0.1-0.5c-0.4,0.5-1.2,0.7-1.8,0.7c-1,0-1.8-0.5-1.8-1.6c0-1.2,0.9-1.5,1.8-1.6c0.9-0.2,1.7-0.1,1.7-0.7
				c0-0.6-0.4-0.8-0.9-0.8c-0.6,0-0.9,0.3-0.9,0.8L45.4,3.8L45.4,3.8z M48.8,4.9c-0.3,0.3-0.8,0.3-1.2,0.3c-0.4,0.1-0.8,0.3-0.8,0.8
				c0,0.5,0.4,0.7,0.9,0.7c1.2,0,1.2-0.9,1.2-1.3L48.8,4.9L48.8,4.9z"/>
			<path fill="#FDFDFE" d="M55.1,6.9L55.1,6.9c-0.3,0.6-0.9,0.8-1.6,0.8c-1.6,0-2.4-1.4-2.4-2.9c0-1.4,0.8-2.8,2.4-2.8
				c0.6,0,1.3,0.3,1.6,0.8l0,0l0,0V0.2h1.4v7.4h-1.4L55.1,6.9L55.1,6.9z M53.9,3.1c-0.9,0-1.3,0.8-1.3,1.7c0,0.8,0.4,1.7,1.3,1.7
				c0.9,0,1.3-0.8,1.3-1.7C55.1,4,54.8,3.1,53.9,3.1z"/>
			<path fill="#FDFDFE" d="M57.6,3.8C57.7,2.5,58.9,2,60.1,2c1.1,0,2.4,0.3,2.4,1.5v2.8c0,0.5,0.1,0.9,0.2,1.2h-1.5
				c-0.1-0.2-0.1-0.3-0.1-0.5c-0.4,0.5-1.2,0.7-1.8,0.7c-1,0-1.8-0.5-1.8-1.6c0-1.2,0.9-1.5,1.8-1.6C60.2,4.3,61,4.4,61,3.8
				C61,3.2,60.5,3,60,3c-0.6,0-0.9,0.3-0.9,0.8L57.6,3.8L57.6,3.8z M61,4.9c-0.3,0.3-0.8,0.3-1.2,0.3c-0.4,0.1-0.8,0.3-0.8,0.8
				c0,0.5,0.4,0.7,0.9,0.7c1.2,0,1.2-0.9,1.2-1.3L61,4.9L61,4.9z"/>
			<path fill="#FDFDFE" d="M66.6,0.2h2.3l1.7,5.1l0,0l1.6-5.1h2.3v7.4h-1.5V2.3l0,0l-1.8,5.2h-1.3l-1.8-5.2l0,0v5.2h-1.5V0.2
				L66.6,0.2z"/>
			<path fill="#FDFDFE" d="M76.8,5.2c0,0.9,0.5,1.4,1.3,1.4c0.6,0,1.1-0.3,1.2-0.7h1.3c-0.4,1.3-1.3,1.8-2.5,1.8
				c-1.7,0-2.7-1.2-2.7-2.8c0-1.6,1.1-2.8,2.7-2.8c1.8,0,2.7,1.5,2.6,3.1H76.8z M79.2,4.3C79,3.6,78.7,3.2,78,3.2
				c-0.9,0-1.2,0.8-1.2,1.1H79.2z"/>
			<path fill="#FDFDFE" d="M85.4,6.9L85.4,6.9c-0.3,0.6-0.9,0.8-1.6,0.8c-1.6,0-2.4-1.4-2.4-2.9c0-1.4,0.8-2.8,2.4-2.8
				c0.6,0,1.3,0.3,1.6,0.8l0,0l0,0V0.2h1.4v7.4h-1.4V6.9z M84.1,3.1c-0.9,0-1.3,0.8-1.3,1.7c0,0.8,0.4,1.7,1.3,1.7
				c0.9,0,1.3-0.8,1.3-1.7C85.4,4,85.1,3.1,84.1,3.1z"/>
			<path fill="#FDFDFE" d="M89.4,1.4h-1.4V0.2h1.4V1.4z M87.9,2.2h1.4v5.3h-1.4V2.2z"/>
			<path fill="#FDFDFE" d="M90.5,3.8C90.6,2.5,91.8,2,93,2c1.1,0,2.4,0.3,2.4,1.5v2.8c0,0.5,0.1,0.9,0.2,1.2H94C94,7.4,94,7.2,94,7
				c-0.4,0.5-1.2,0.7-1.8,0.7c-1,0-1.8-0.5-1.8-1.6c0-1.2,0.9-1.5,1.8-1.6c0.9-0.2,1.7-0.1,1.7-0.7c0-0.6-0.4-0.8-0.9-0.8
				C92.3,3,92,3.3,92,3.9L90.5,3.8L90.5,3.8z M93.9,4.9c-0.3,0.3-0.8,0.3-1.2,0.3c-0.4,0.1-0.8,0.3-0.8,0.8c0,0.5,0.4,0.7,0.9,0.7
				C94,6.7,94,5.8,94,5.4L93.9,4.9L93.9,4.9z"/>
			<path fill="#FDFDFE" d="M99.5,0.2h5.2v1.4h-3.6v1.7h3v1.3h-3v3h-1.6V0.2z"/>
			<path fill="#FDFDFE" d="M110.4,7.5H109V6.8l0,0c-0.3,0.6-1,0.8-1.6,0.8c-1.5,0-1.9-0.8-1.9-2.2V2.2h1.4v3c0,0.8,0.3,1.3,0.9,1.3
				c0.8,0,1.1-0.4,1.1-1.5V2.2h1.4V7.5L110.4,7.5z"/>
			<path fill="#FDFDFE" d="M111.5,2.2h1.4V3l0,0c0.3-0.6,1-0.8,1.6-0.8c1.5,0,1.9,0.8,1.9,2.2v3.3H115V4.5c0-0.8-0.3-1.3-0.9-1.3
				c-0.8,0-1.1,0.4-1.1,1.5v2.8h-1.4L111.5,2.2L111.5,2.2z"/>
			<path fill="#FDFDFE" d="M121.2,6.9L121.2,6.9c-0.3,0.6-0.9,0.8-1.6,0.8c-1.6,0-2.4-1.4-2.4-2.9c0-1.4,0.8-2.8,2.4-2.8
				c0.6,0,1.3,0.3,1.6,0.8l0,0l0,0V0.2h1.4v7.4h-1.4L121.2,6.9L121.2,6.9z M119.9,3.1c-0.9,0-1.3,0.8-1.3,1.7c0,0.8,0.4,1.7,1.3,1.7
				c0.9,0,1.3-0.8,1.3-1.7C121.2,4,120.8,3.1,119.9,3.1z"/>
		</g>
	</g>
	<g>
		<g>
			<rect x="0" y="18" fill="#F15D22" width="2.2" height="2.2"/>
			<rect x="4.5" y="18" fill="#F15D22" width="2.2" height="2.2"/>
			<rect x="9" y="18" fill="#F15D22" width="2.2" height="2.2"/>
			<rect x="13.4" y="18" fill="#F15D22" width="2.2" height="2.2"/>
			<rect x="2.2" y="18" fill="#E63625" width="2.2" height="2.2"/>
			<rect x="6.7" y="18" fill="#E63625" width="2.2" height="2.2"/>
			<rect x="11.2" y="18" fill="#E63625" width="2.2" height="2.2"/>
			<rect x="15.6" y="18" fill="#E63625" width="2.2" height="2.2"/>
			<rect x="17.9" y="18" fill="#F15D22" width="2.2" height="2.2"/>
		</g>
		<g>
			<rect x="0" y="15.8" fill="#F37121" width="2.2" height="2.2"/>
			<rect x="2.2" y="15.8" fill="#F15D22" width="2.2" height="2.2"/>
			<rect x="4.5" y="15.8" fill="#F37121" width="2.2" height="2.2"/>
			<rect x="6.7" y="15.8" fill="#F15D22" width="2.2" height="2.2"/>
			<rect x="9" y="15.8" fill="#F37121" width="2.2" height="2.2"/>
			<rect x="11.2" y="15.8" fill="#F15D22" width="2.2" height="2.2"/>
			<rect x="13.4" y="15.8" fill="#F37121" width="2.2" height="2.2"/>
			<rect x="15.6" y="15.8" fill="#F15D22" width="2.2" height="2.2"/>
			<rect x="17.9" y="15.8" fill="#F37121" width="2.2" height="2.2"/>
		</g>
		<g>
			<rect x="0" y="13.5" fill="#F15D22" width="2.2" height="2.2"/>
			<rect x="2.2" y="13.5" fill="#F5893A" width="2.2" height="2.2"/>
			<rect x="4.5" y="13.5" fill="#F26822" width="2.2" height="2.2"/>
			<rect x="6.7" y="13.5" fill="#F49C3B" width="2.2" height="2.2"/>
			<rect x="9" y="13.5" fill="#F15D22" width="2.2" height="2.2"/>
			<rect x="11.2" y="13.5" fill="#F37121" width="2.2" height="2.2"/>
			<rect x="13.4" y="13.5" fill="#F49C3B" width="2.2" height="2.2"/>
			<rect x="15.6" y="13.5" fill="#F37121" width="2.2" height="2.2"/>
			<rect x="17.9" y="13.5" fill="#F26822" width="2.2" height="2.2"/>
		</g>
		<g>
			<rect x="0" y="11.3" fill="#F49C3B" width="2.2" height="2.2"/>
			<rect x="2.2" y="11.3" fill="#FCC06F" width="2.2" height="2.2"/>
			<rect x="4.5" y="11.3" fill="#F68D3E" width="2.2" height="2.2"/>
			<rect x="6.7" y="11.3" fill="#F58120" width="2.2" height="2.2"/>
			<rect x="9" y="11.3" fill="#EF9360" width="2.2" height="2.2"/>
			<rect x="11.2" y="11.3" fill="#FFD699" width="2.2" height="2.2"/>
			<rect x="13.4" y="11.3" fill="#F5893A" width="2.2" height="2.2"/>
			<rect x="15.6" y="11.3" fill="#F26822" width="2.2" height="2.2"/>
			<rect x="17.9" y="11.3" fill="#FAAA48" width="2.2" height="2.2"/>
		</g>
		<g>
			<rect x="0" y="9" fill="#FFD699" width="2.2" height="2.2"/>
			<rect x="2.2" y="9" fill="#FAAA48" width="2.2" height="2.2"/>
			<rect x="4.5" y="9" fill="#F57E2D" width="2.2" height="2.2"/>
			<rect x="6.7" y="9" fill="#FFD699" width="2.2" height="2.2"/>
			<rect x="9" y="9" fill="#F8B964" width="2.2" height="2.2"/>
			<rect x="11.2" y="9" fill="#F7922D" width="2.2" height="2.2"/>
			<rect x="13.4" y="9" fill="#F9CC98" width="2.2" height="2.2"/>
			<rect x="15.6" y="9" fill="#F8B367" width="2.2" height="2.2"/>
			<rect x="17.9" y="9" fill="#F5893A" width="2.2" height="2.2"/>
		</g>
		<g>
			<rect x="0" y="6.9" fill="#FAAA48" width="2.2" height="2.2"/>
			<rect x="2.2" y="6.9" fill="#F57F2E" width="2.2" height="2.2"/>
			<rect x="4.5" y="6.9" fill="#FAAA48" width="2.2" height="2.2"/>
			<rect x="6.7" y="6.9" fill="#F57F2E" width="2.2" height="2.2"/>
			<rect x="9" y="6.9" fill="#FAAA48" width="2.2" height="2.2"/>
			<rect x="11.2" y="6.9" fill="#F57F2E" width="2.2" height="2.2"/>
			<rect x="13.4" y="6.9" fill="#FAAA48" width="2.2" height="2.2"/>
			<rect x="15.6" y="6.9" fill="#F57F2E" width="2.2" height="2.2"/>
			<rect x="17.9" y="6.9" fill="#FAAA48" width="2.2" height="2.2"/>
		</g>
		<g>
			<rect x="0" y="4.6" fill="#FFD699" width="2.2" height="2.2"/>
			<rect x="2.2" y="4.6" fill="#FAAA48" width="2.2" height="2.2"/>
			<rect x="4.5" y="4.6" fill="#FFD699" width="2.2" height="2.2"/>
			<rect x="6.7" y="4.6" fill="#FAAA48" width="2.2" height="2.2"/>
			<rect x="9" y="4.6" fill="#FFD699" width="2.2" height="2.2"/>
			<rect x="11.2" y="4.6" fill="#FAAA48" width="2.2" height="2.2"/>
			<rect x="13.4" y="4.6" fill="#FFD699" width="2.2" height="2.2"/>
			<rect x="15.6" y="4.6" fill="#FAAA48" width="2.2" height="2.2"/>
			<rect x="17.9" y="4.6" fill="#FFD699" width="2.2" height="2.2"/>
		</g>
		<g>
			<rect x="0" y="2.4" fill="#FBE2BB" width="2.2" height="2.2"/>
			<rect x="2.2" y="2.4" fill="#FCC988" width="2.2" height="2.2"/>
			<rect x="4.5" y="2.4" fill="#FBE2BB" width="2.2" height="2.2"/>
			<rect x="6.7" y="2.4" fill="#FCC988" width="2.2" height="2.2"/>
			<rect x="9" y="2.4" fill="#FBE2BB" width="2.2" height="2.2"/>
			<rect x="11.2" y="2.4" fill="#FCC988" width="2.2" height="2.2"/>
			<rect x="13.4" y="2.4" fill="#FBE2BB" width="2.2" height="2.2"/>
			<rect x="15.6" y="2.4" fill="#FCC988" width="2.2" height="2.2"/>
			<rect x="17.9" y="2.4" fill="#FBE2BB" width="2.2" height="2.2"/>
		</g>
		<g>
			<rect x="0" y="0.1" fill="#FBEBDD" width="2.2" height="2.2"/>
			<rect x="2.2" y="0.1" fill="#F7E1C7" width="2.2" height="2.2"/>
			<rect x="4.5" y="0.1" fill="#FBEBDD" width="2.2" height="2.2"/>
			<rect x="6.7" y="0.1" fill="#F7E1C7" width="2.2" height="2.2"/>
			<rect x="9" y="0.1" fill="#FBEBDD" width="2.2" height="2.2"/>
			<rect x="11.2" y="0.1" fill="#F7E1C7" width="2.2" height="2.2"/>
			<rect x="13.4" y="0.1" fill="#FBEBDD" width="2.2" height="2.2"/>
			<rect x="15.6" y="0.1" fill="#F7E1C7" width="2.2" height="2.2"/>
			<rect x="17.9" y="0.1" fill="#FBEBDD" width="2.2" height="2.2"/>
		</g>
	</g>
</g>
</svg>
