<?xml version="1.0" encoding="utf-8"?>
<!-- Generator: Adobe Illustrator 18.1.1, SVG Export Plug-In . SVG Version: 6.00 Build 0)  -->
<!DOCTYPE svg PUBLIC "-//W3C//DTD SVG 1.1 Tiny//EN" "http://www.w3.org/Graphics/SVG/1.1/DTD/svg11-tiny.dtd">
<svg version="1.1" baseProfile="tiny" id="Layer_1" xmlns="http://www.w3.org/2000/svg" xmlns:xlink="http://www.w3.org/1999/xlink"
	 x="0px" y="0px" viewBox="0 0 115.8 34.7" xml:space="preserve">
<g>
	<g>
		<path fill="#C8C8C8" d="M26.1,30.7c-0.3,0.2-0.6,0.3-1,0.3c-0.9,0-1.2-0.8-1.2-1.6c0-1.3,0.7-3.3,2-3.3c0.6,0,0.8,0.5,0.8,1
			c0,1.1-1,1.6-2.3,1.6c0,0.1-0.1,0.9,0,1.2c0.1,0.5,0.4,0.8,0.8,0.8c0.4,0,0.6-0.2,0.8-0.3L26.1,30.7z M26.4,27
			c0-0.4-0.2-0.6-0.5-0.6c-0.5,0-1,0.6-1.3,1.8C25.4,28.3,26.4,28,26.4,27L26.4,27z"/>
		<path fill="#C8C8C8" d="M27,31l0.6-3.1c0.2-0.8,0.2-1.4,0.3-1.7h0.4L28.1,27h0c0.4-0.7,0.8-0.9,1.3-0.9c0.5,0,0.8,0.5,0.8,0.9
			c0,0.3,0,0.5-0.1,0.7L29.4,31h-0.4l0.6-3.2c0-0.3,0.1-0.5,0.1-0.8c0-0.3-0.1-0.6-0.5-0.6c-0.6,0-1.2,0.9-1.4,1.8L27.4,31H27z"/>
		<path fill="#C8C8C8" d="M32.3,25.1L32,26.2H33l-0.1,0.4H32l-0.6,3.1c-0.1,0.3-0.1,0.6-0.1,0.7c0,0.2,0.1,0.3,0.3,0.3
			c0.1,0,0.2,0,0.3,0V31c-0.1,0-0.3,0.1-0.4,0.1c-0.4,0-0.6-0.2-0.6-0.6c0-0.2,0-0.3,0.1-0.8l0.6-3.1H31l0.1-0.4h0.6l0.2-0.8
			L32.3,25.1z"/>
		<path fill="#C8C8C8" d="M34.9,30.7c-0.3,0.2-0.6,0.3-1,0.3c-0.9,0-1.2-0.8-1.2-1.6c0-1.3,0.7-3.3,2-3.3c0.6,0,0.8,0.5,0.8,1
			c0,1.1-1,1.6-2.3,1.6c0,0.1-0.1,0.9,0,1.2c0.1,0.5,0.4,0.8,0.8,0.8c0.4,0,0.6-0.2,0.8-0.3L34.9,30.7z M35.2,27
			c0-0.4-0.2-0.6-0.5-0.6c-0.5,0-1,0.6-1.3,1.8C34.2,28.3,35.2,28,35.2,27L35.2,27z"/>
		<path fill="#C8C8C8" d="M35.7,31l0.6-3.2c0.1-0.7,0.2-1.3,0.2-1.6h0.4c0,0.3,0,0.5-0.1,1h0c0.3-0.6,0.7-1,1.2-1c0,0,0.1,0,0.1,0
			l-0.1,0.5c0,0,0,0,0,0c-0.7,0-1.3,1.1-1.4,1.7L36.1,31H35.7z"/>
		<path fill="#C8C8C8" d="M39.8,25.1l-0.2,1.1h0.9l-0.1,0.4h-0.9l-0.6,3.1c-0.1,0.3-0.1,0.6-0.1,0.7c0,0.2,0.1,0.3,0.3,0.3
			c0.1,0,0.2,0,0.3,0V31c-0.1,0-0.3,0.1-0.4,0.1c-0.4,0-0.6-0.2-0.6-0.6c0-0.2,0-0.3,0.1-0.8l0.6-3.1h-0.6l0.1-0.4h0.6l0.2-0.8
			L39.8,25.1z"/>
		<path fill="#C8C8C8" d="M42.4,31c0-0.3,0.1-0.6,0.1-1h0c-0.5,0.9-0.9,1.1-1.3,1.1c-0.5,0-0.8-0.4-0.8-1.3c0-1.5,0.8-3.7,2.6-3.7
			c0.2,0,0.5,0.1,0.6,0.1L43,29c-0.1,0.7-0.2,1.4-0.2,2H42.4z M43.1,26.5c-0.1,0-0.2,0-0.3,0c-1.2,0-2,1.9-2,3.1
			c0,0.7,0.1,1.1,0.5,1.1c0.6,0,1.2-1.2,1.4-2.2L43.1,26.5z"/>
		<path fill="#C8C8C8" d="M43.8,31l0.9-4.8h0.4L44.2,31H43.8z M45.1,25.3c-0.2,0-0.3-0.1-0.2-0.4c0-0.2,0.2-0.4,0.4-0.4
			c0.2,0,0.3,0.2,0.3,0.4C45.5,25.2,45.3,25.3,45.1,25.3L45.1,25.3z"/>
		<path fill="#C8C8C8" d="M45.4,31l0.6-3.1c0.2-0.8,0.2-1.4,0.2-1.7h0.4L46.5,27h0c0.4-0.7,0.8-0.9,1.3-0.9c0.5,0,0.8,0.5,0.8,0.9
			c0,0.3,0,0.5-0.1,0.7L47.9,31h-0.4l0.6-3.2c0.1-0.3,0.1-0.5,0.1-0.8c0-0.3-0.1-0.6-0.5-0.6c-0.6,0-1.2,0.9-1.4,1.8L45.8,31H45.4z"
			/>
		<path fill="#C8C8C8" d="M49,31l0.6-3.1c0.2-0.8,0.2-1.4,0.3-1.7h0.4L50.1,27h0c0.4-0.7,0.8-0.9,1.2-0.9c0.5,0,0.8,0.5,0.8,0.9
			c0.4-0.7,0.9-0.9,1.2-0.9c0.5,0,0.8,0.5,0.8,0.9c0,0.3,0,0.5-0.1,0.8L53.4,31h-0.4l0.6-3.2c0.1-0.3,0.1-0.5,0.1-0.8
			c0-0.3-0.1-0.6-0.5-0.6c-0.5,0-1.1,0.8-1.3,1.8L51.4,31H51l0.6-3.2c0-0.3,0.1-0.5,0.1-0.8c0-0.3-0.1-0.6-0.5-0.6
			c-0.5,0-1.1,0.9-1.3,1.8L49.4,31H49z"/>
		<path fill="#C8C8C8" d="M56.9,30.7c-0.3,0.2-0.6,0.3-1,0.3c-0.9,0-1.2-0.8-1.2-1.6c0-1.3,0.7-3.3,2-3.3c0.6,0,0.8,0.5,0.8,1
			c0,1.1-1,1.6-2.3,1.6c0,0.1-0.1,0.9,0,1.2c0.1,0.5,0.4,0.8,0.8,0.8c0.4,0,0.6-0.2,0.8-0.3L56.9,30.7z M57.1,27
			c0-0.4-0.2-0.6-0.5-0.6c-0.5,0-1,0.6-1.3,1.8C56.2,28.3,57.1,28,57.1,27L57.1,27z"/>
		<path fill="#C8C8C8" d="M57.7,31l0.6-3.1c0.2-0.8,0.2-1.4,0.3-1.7h0.4L58.8,27h0c0.4-0.7,0.8-0.9,1.3-0.9c0.5,0,0.8,0.5,0.8,0.9
			c0,0.3,0,0.5-0.1,0.7L60.2,31h-0.4l0.6-3.2c0.1-0.3,0.1-0.5,0.1-0.8c0-0.3-0.1-0.6-0.5-0.6c-0.6,0-1.2,0.9-1.4,1.8L58.1,31H57.7z"
			/>
		<path fill="#C8C8C8" d="M63,25.1l-0.2,1.1h0.9l-0.1,0.4h-0.9l-0.6,3.1c-0.1,0.3-0.1,0.6-0.1,0.7c0,0.2,0.1,0.3,0.3,0.3
			c0.1,0,0.2,0,0.3,0V31c-0.1,0-0.3,0.1-0.4,0.1c-0.4,0-0.6-0.2-0.6-0.6c0-0.2,0-0.3,0.1-0.8l0.6-3.1h-0.6l0.1-0.4h0.6l0.2-0.8
			L63,25.1z"/>
		<path fill="#C8C8C8" d="M65,31l0.9-4.8h0.4L65.4,31H65z M66.3,25.3c-0.2,0-0.3-0.1-0.2-0.4c0-0.2,0.2-0.4,0.4-0.4
			c0.2,0,0.3,0.2,0.3,0.4C66.7,25.2,66.5,25.3,66.3,25.3L66.3,25.3z"/>
		<path fill="#C8C8C8" d="M66.6,31l0.6-3.1c0.2-0.8,0.2-1.4,0.3-1.7h0.4L67.7,27h0c0.4-0.7,0.8-0.9,1.3-0.9c0.5,0,0.8,0.5,0.8,0.9
			c0,0.3,0,0.5-0.1,0.7L69.1,31h-0.4l0.6-3.2c0-0.3,0.1-0.5,0.1-0.8c0-0.3-0.1-0.6-0.5-0.6c-0.6,0-1.2,0.9-1.4,1.8L67,31H66.6z"/>
		<path fill="#C8C8C8" d="M72.3,30.9c-0.2,0.1-0.5,0.1-0.7,0.1c-0.9,0-1.2-0.8-1.2-1.7c0-1.2,0.7-3.2,2.3-3.2c0.2,0,0.3,0,0.4,0.1
			l-0.1,0.4c-0.1,0-0.2-0.1-0.4-0.1c-1.2,0-1.8,1.7-1.8,2.9c0,0.8,0.2,1.4,0.9,1.4c0.2,0,0.4,0,0.6-0.1L72.3,30.9z"/>
		<path fill="#C8C8C8" d="M73.3,31.1c-0.2,0-0.3-0.2-0.3-0.4c0-0.2,0.2-0.4,0.4-0.4c0.3,0,0.3,0.2,0.3,0.4
			C73.7,30.8,73.5,31.1,73.3,31.1L73.3,31.1z"/>
	</g>
	<g>
		<g>
			<path fill="#323232" d="M103.8,27.6L103.8,27.6l-0.1-0.3V27l0-0.1v-0.3l0-0.1v-0.1l0-0.1l-0.1-0.1l-0.1,0h-0.2l0,0.1l-0.2,0.1
				l-0.1,0l-0.1,0.1h-0.1l-0.1,0.1l-0.1,0l-0.1,0h-0.1l-0.1-0.1l0-0.1l0-0.1l0-0.1v-0.1l-0.1-0.1l0-0.1l0-0.1l-0.1-0.1l-0.1,0
				l-0.1,0c0,0,0,0-0.1,0c-0.1,0-0.1,0-0.1,0l-0.1,0c0,0,0,0-0.1,0c-0.1,0-0.1,0-0.1,0l-0.1,0c0,0,0,0-0.1,0c-0.1,0-0.3,0-0.3,0.1
				H101l-0.1,0h-0.1l-0.1,0l-0.1,0.1v0.2l0,0.1c0,0,0,0,0,0.1c-0.1,0.1-0.1,0.1-0.1,0.1l0,0.1l0,0.1c0,0,0,0,0,0.1
				c0,0.1-0.1,0.1-0.1,0.1l-0.1,0l-0.1,0l-0.1,0l-0.1,0l-0.1,0l-0.1,0l-0.1,0c0,0,0-0.1,0-0.1c-0.1,0-0.1,0-0.1,0l0-0.1
				c0,0,0-0.1,0-0.1c-0.1,0-0.1,0-0.1,0l-0.1-0.1c0,0,0,0,0-0.1s0-0.1,0-0.1v-0.2l0-0.1l0-0.1l-0.1-0.1l-0.1,0l0-0.1l-0.1,0l-0.1,0
				c0,0,0,0-0.1,0.1c0,0.1,0,0.1,0,0.1l-0.1,0.1h-0.1c0,0-0.1,0-0.1,0.1c0,0.1,0,0.1,0,0.1c-0.1,0.1,0-0.1-0.1,0.1
				c-0.1,0.1-0.1,0.2-0.1,0.2l0,0.1v0.1l0,0.1c0,0-0.1,0-0.1,0.1c0,0.1,0,0.2,0,0.2s0.1,0,0,0.1c0,0.1-0.1,0.2-0.1,0.2s0,0,0,0.1
				c0,0.1,0.1,0.2,0.1,0.2l0.1,0.1c0,0,0,0,0,0.1c0,0.1,0,0.1,0,0.2c0,0.1,0,0.1,0,0.1s0.1,0,0.1,0.1c0,0.1,0,0,0,0.1
				c0,0.1,0.1,0.1,0,0.2c0,0.1,0,0.1,0,0.1s-0.1,0.1-0.1,0.2c0,0.1,0,0.1,0,0.1h0.1c0,0,0-0.1,0.1,0c0,0.1,0,0.1,0,0.1l0.1,0.1
				c0,0,0,0.1,0,0.1c0,0.1-0.1-0.1,0,0.1c0.1,0.1,0.1,0.2,0.1,0.2V29c0,0,0,0,0,0.1c0,0.1,0,0,0,0.1c0,0.1,0,0.1,0,0.2
				c0,0.1,0,0.1,0,0.1l0.1,0.1l0.1-0.1l0.1-0.1c0,0,0,0,0.1,0c0.1,0,0.1,0,0.1,0l0.1,0.1c0,0,0.1,0,0,0.1c-0.1,0.1,0,0-0.1,0.1
				c0,0.1-0.1,0.2-0.1,0.2v0.1l0.1,0l0.1-0.1l0.1-0.1l0-0.1c0,0,0,0,0.1-0.1c0.1,0,0.1-0.1,0.1-0.1l0.1-0.1l0,0c0,0,0.1,0,0.2,0
				l0.1,0.1v0.1l0,0.1l0,0.1l0,0.2l-0.1,0.1l-0.1,0l0,0.1l-0.1,0.1l0.1,0l0,0.1l0,0.1l0,0.2c0,0,0.1,0.3,0.1,0.4
				c0,0.1,0.1,0.1,0.1,0.2c0,0.1,0.1,0.2,0.1,0.2l0.1,0.2l0.2,0l0.1,0.1h0.1l0-0.1l0.1-0.2c0,0,0-0.1,0-0.2c0-0.1,0-0.3,0-0.3l0-0.1
				c0,0,0,0,0,0c0-0.2,0,0,0.1-0.2c0.1-0.2,0,0,0-0.1c0-0.1,0.1-0.1,0.1-0.1l0.2-0.2V30v-0.1l0,0c0,0,0.1,0,0.1-0.1
				c0-0.1,0.1,0,0.1,0s0.1,0,0.1,0c0.1,0,0.1,0,0.1,0l0,0v0.1c0,0,0,0.1,0,0.1c0,0.1,0,0.1,0,0.1l0,0c0,0,0,0,0,0l0.1-0.1v-0.1
				l0.3,0.1l0.1-0.2l0.1-0.1l0-0.1c0,0,0-0.1,0.1-0.1c0.1,0,0.1,0,0.1,0l0.1-0.1l0.1-0.1l0.1-0.1l0.1,0l0.1,0l0-0.1l0-0.1L103,29
				l0.1-0.1c0,0,0.1,0,0.1,0c0-0.1,0-0.1,0-0.1l0-0.1l0-0.1l0.1,0v-0.1l0.1-0.1l0-0.1l0-0.1l0-0.1l0-0.1h0.1l0.1,0l0.2-0.2v-0.2
				L103.8,27.6L103.8,27.6z"/>
			<path fill="#323232" d="M105.9,21.8l0-0.1l-0.1-0.1l-0.1-0.2l-0.1-0.1l0-0.1l-0.1,0c-0.3-0.5-1.9-2.1-1.9-2.1l0,0.1l0,0.1l0,0.1
				l-0.1,0.2l-0.1,0.1c0.1,0.3-0.2,0.7-0.2,0.7l-0.1,0c0,0,0,0-0.1,0c-0.1,0-0.1,0-0.1,0l-0.2,0l-0.1,0l-0.1,0l-0.1,0l-0.1,0.1
				l-0.2,0.1l-0.1,0.1l-0.1,0.1l-0.1,0.1l-0.1,0l0,0.1l-0.1,0.1l-0.1,0l-0.1,0l-0.1,0l-0.1,0l-0.1-0.1l-0.1-0.1l-0.1-0.1l-0.1-0.1
				l-0.1-0.1l-0.1-0.1l-0.2,0l-0.1,0l-0.2,0c0,0,0,0-0.1,0c-0.1,0-0.1,0-0.1,0l0-0.1l-0.1,0l-0.1,0l0,0.1l-0.1,0.1l-0.1,0l-0.1,0
				L99,20.5l-0.1,0l-0.1,0.1l-0.1,0l-0.1,0l-0.1,0l-0.2,0l-0.1,0.1l-0.1,0.1l-0.2,0l-0.1,0l-0.1,0l-0.1,0c-0.1,0.1-0.1,0.1-0.1,0.1
				l-0.2,0.1l-0.1,0.2l-0.2,0.1L97,21.5l0,0.1l0,0.1l-0.1,0.1l-0.1,0.2L96.7,22l0,0.1c0,0,0,0,0,0.1c0,0.1,0,0.1,0,0.1l0,0.2l0,0.1
				l0.1,0l0.1,0l0.1,0.2c0,0,0,0,0.1,0.1c0,0.1,0,0.1,0,0.1s0.1,0.3,0.2,0l0-0.4l0-0.1l0-0.1l0-0.1l0-0.1l0-0.2l0.1-0.1l0.1,0l0.2,0
				l0.1,0l0.1-0.1l0.2-0.1l0.1,0l0.1,0l0.1,0l0.1,0l0.2,0l0.1-0.1l0.2,0l0.1,0l0.2,0l0.1,0l0.1,0l0.1-0.1l0.1,0l0,0.1l0.1,0l0.1,0
				l0.1,0l0.2,0.1l0.1,0l0.1,0l0.2,0l0.2,0l0.2,0l0.2,0l0.1,0c0,0,0,0,0.1,0c0.1,0,0.1,0,0.1,0l0.1,0l0.1,0l0.2,0l0.1,0l0.1,0
				l0.2,0.1l0.1,0l0.1,0l0.1,0.1l0.1,0.1l0.1,0l0.2,0l0.1,0l0.1,0c0.2,0,0.2,0,0.2,0l0.1,0l0.2,0l0.1,0.1l0.1,0l0.1,0.1l0,0.1
				c0,0,0,0.1,0.1,0.1c0.1,0,0.1,0,0.1,0l0.2,0l0.1,0l0.1,0l0.1,0l0.1,0l0.2,0l0.1,0l0.1,0l0.1,0.1l0.1,0.2l0.1,0.1l0.1,0.1l0,0.1
				l0,0.1l0.1,0l0.1-0.2l0-0.1l0.1-0.1l0.1-0.1l0.1-0.1l0.1-0.1l0-0.1l0.1-0.2L105.9,21.8z"/>
			<path fill="#323232" d="M104.2,22.3L104.2,22.3c-0.1,0-0.2,0-0.3,0c-0.1,0-0.1,0-0.1,0l-0.1,0l-0.1,0.1l0,0.1l0,0.1l0,0.2l0,0.1
				c-0.2,0.5-0.4,0.1-0.4,0.1c0,0.4-0.7,0.2-0.7,0.2c0,0.3-0.8,0.2-0.8,0.2l-0.1-0.3l0,0.1l0,0.1l0,0.1l-0.7,0
				c-0.2,0-0.2-0.2-0.2-0.2c-0.3,0.2-0.6-0.2-0.6-0.2l-0.2,0.1l-0.1,0l-0.1-0.1l0-0.1l-0.1,0L99.2,23l0-0.1c0,0,0,0,0-0.1
				c0-0.1,0-0.1,0-0.1L99,22.6l-0.1-0.1c0,0,0,0,0-0.1c0-0.1,0-0.1,0-0.1l0-0.1l0-0.1L98.8,22l-0.1,0l-0.2,0.1c0,0,0,0-0.1,0
				c-0.1,0-0.1,0.1-0.1,0.1l-0.1,0l-0.2,0l-0.1,0c2.3,3.3,5.9,1.1,5.9,1.1c0.3-0.1,0.6-0.8,0.6-0.8l-0.1-0.1L104.2,22.3z"/>
			<path fill="#323232" d="M101.7,20.6c0.1,0.2,0.3,0,0.3,0c0.2-0.2,1-0.4,1-0.4C102.1,19.7,101.7,20.6,101.7,20.6z"/>
			<path fill="#323232" d="M100.9,20.4c-0.2-0.4-0.8-0.3-0.8-0.3C100.1,20.5,100.9,20.4,100.9,20.4z"/>
			<path fill="#323232" d="M103.4,19.5c0,0,0.1-0.1-0.2-0.6c0,0-0.1-0.1-0.3-0.4c0,0-0.3-0.4-0.4-0.7c0,0-0.6-0.8-0.6-1.1
				c0,0-0.6-1-0.7-0.1c0,0-0.1,0.9,0.3,1c0,0,0.3,0.2,0.5,0.1c0,0,0.6,0.2,0.7,0.6c0,0,0,0.3,0.3,0.5
				C102.8,18.8,103.4,19.1,103.4,19.5z"/>
			<path fill="#323232" d="M109,15.5l-0.2,0c-0.1-0.5-0.3-1.4-0.9-1.6c0,0-1.3-0.7-3-0.5c0,0-0.5,0.1-1.1,0.2l0,0l-5.3-0.1l-0.1,0
				c-0.7-0.2-1.3-0.2-1.3-0.2c-1.7-0.2-3,0.5-3,0.5c-0.8,0.3-0.9,1.9-0.9,1.9c0,0,0,0.1,0,0.1l-0.2,0l-0.4-0.1l0,0.4
				c0,0,0.3,0.1,0.6,0l0-0.2c0.2,2.8,1.8,3.1,1.8,3.1c1.8,0.8,3.5-1.1,3.5-1.1c1.1-0.9,1.7-2.9,1.7-2.9c0-0.1,0-0.3,0-0.4l0.2-0.4
				c0.2-0.2,1-0.1,1.2-0.1c0,0,0,0,0.1,0c0,0,0,0,0,0c0.1,0.1,0.2,0.2,0.2,0.3c0,0,0,0.1,0,0.1c0,0.1-0.1,0.4,0,0.6
				c0,0,0.7,2,1.8,2.9c0,0,1.7,1.9,3.5,1.1c0,0,1.7-0.4,1.8-3.4c0.2,0,0.5-0.1,0.5-0.1l0-0.4L109,15.5z M101.9,14.5
				c0.1-0.7-1.4-0.4-1.4-0.4c-0.2,0-0.5,0.3-0.5,0.3l0,0.1c-0.1-0.3-0.5-0.6-1-0.8l4.2,0.1C102.6,13.9,102.1,14.1,101.9,14.5z"/>
			<path fill="#323232" d="M115.4,16.1c0,0-0.2-0.2-0.2-0.2l-0.8-0.1l0,0l0.2-0.1c0.3,0,0.3,0,0.3,0l0.2,0l0.1,0l0.2,0l-0.3-0.4
				l-0.1,0l-0.1-0.1l-0.2-0.2l0-0.2l-0.2-0.2l0-0.1l0-0.1l0.1-0.1l0.1,0l-0.1-0.1l0-0.1l0-0.1l0-0.1l0-0.1c0,0,0.1,0,0-0.1
				c-0.1-0.1-0.1-0.2-0.1-0.2l0-0.1l0-0.1l0-0.1c0,0,0,0,0.1,0c0.1,0,0.1,0,0.2,0c0.1,0,0.2,0,0.3,0c0.1,0,0.1,0.1,0.2,0
				c0.1,0,0.1,0,0.1,0l0.1,0l0.1-0.1c-0.2,0,0-0.1-0.2,0c-0.1,0-0.1,0-0.1,0s0.2,0.2-0.2,0c-0.4-0.2-1-0.3-1-0.3l0.1-0.2l0-0.1
				c0,0-0.3-1.5-1.7-2.2l-0.3-0.2l-0.1-0.3l0-0.2l0.1-0.2c0,0,0,0,0-0.1c0.2-0.2,0.3-0.4,0.5-0.6c0-0.1-0.1-0.1-0.1-0.2l0-0.1
				l-0.1-0.1c-0.1-0.1-0.1-0.3-0.2-0.4c-0.3-0.5-0.4-0.4-0.6-0.9c-0.2-0.5,0.4-0.2-0.5-0.9c-0.8-0.7-1.1-1.1-1.1-1.1l0,0.3
				c-0.1-0.3-0.2-0.7-0.4-1.4c-0.7-2.4-0.8-1.1-1.4-1.7c-0.6-0.6-1.9-0.8-3.4-1.8c-1.5-1-0.7-0.2-1.7-0.3s-2.2,0-2.5,0
				c-0.3,0-1.1,0.2-2.3,0.5c-1.2,0.3-2.1,0.4-3.7,0.5c-1.6,0.1-1.2,0.3-2.3,0.5c-1.1,0.2-0.6,0.1-1.6,0.6c-1,0.5-1,1.1-1,1.1l-0.1,1
				c0,0-0.3,0.5-1.2,1.4c-0.9,0.9-0.3,0.4-0.5,1.1c-0.2,0.7-0.3,0.6-0.6,1.2c-0.1,0.1-0.1,0.3-0.2,0.5l-0.1,0.1l0,0.1
				c0,0.1-0.1,0.2-0.1,0.2c0.2,0.2,0.4,0.5,0.5,0.7c0,0,0,0.1,0,0.1l0.1,0.2l0,0.3l-0.2,0.4L87.2,11c-1.4,0.9-1.8,2.8-1.8,2.8l0,0.1
				l0.1,0.2c0,0-0.6,0.2-1,0.4c-0.4,0.2-0.2,0-0.2,0s0,0-0.2-0.1c-0.2-0.1,0,0-0.2,0.1l0.1,0.1l0.1,0.1c0,0,0,0,0.1,0
				c0.1,0,0.1,0,0.2-0.1c0.1,0,0.1,0,0.3-0.1c0.2,0,0.1,0,0.2,0c0.1,0,0.1,0,0.1,0l0,0.1l0,0.2l0,0.1c0,0,0,0.2-0.1,0.3
				c-0.1,0.1,0.1,0.2,0.1,0.2l0.1,0.2l0,0.1l0.1,0.2l0,0.1l-0.1,0.1l0.1,0l0.1,0.1l0,0.2l0,0.1l-0.2,0.2l0,0.2l-0.2,0.2l-0.1,0.1
				l-0.1,0l-0.3,0.5l0.2-0.1l0.1,0l0.2,0c0,0,0,0,0.3,0l0.2,0.2l0,0c0,0-0.4,0-0.4,0.1c-0.1,0-0.4,0.1-0.4,0.1c0,0-0.1,0.2-0.2,0.3
				c0,0.1-0.1,0.1-0.1,0.2c0,0,0,0.1,0,0.1C84.1,19,84,19.2,84,19.4l-0.2,0.2l0.2,0.1c0,0,0,0,0,0c0.1,0.5,0.4,0.9,0.4,0.9l0.1,0.1
				l0.1,0.1l0.2,0l0.3,0.1c0,0,0,0,0.2,0c0.2,0,0.2,0,0.2,0s0,0,0.3,0c0.3,0,0.2,0,0.2,0l0.2-0.1c0,0,0.1,0,0.3-0.1
				c0.1,0,0.2-0.1,0.2-0.1l0.3,0l0,0.3l0,0.2l0,0.1l0.1,0.1l0,0.2L87,22l-0.1,0.1l-0.1,0.1l-0.1,0.1c0,0-0.1,0.1-0.1,0.3
				c-0.1,0.1-0.2,0.2-0.2,0.2L86.1,23L86,23.2c0,0-0.1,0.1-0.1,0.2c-0.1,0.1-0.1,0.1-0.1,0.1l-0.2,0.2l-0.1,0.1l-0.1,0.1l-0.1,0.3
				c0,0,0,0.1,0,0.2c0,0.1,0,0.2,0,0.2s0,0.1,0,0.2c0,0.1,0.1,0.2,0.1,0.3c0,0.1,0.1,0.2,0.1,0.2l0.1,0.2l0.2,0.1c0,0,0,0,0.1,0.1
				c0.1,0.1,0,0.1,0,0.1l0,0.2l0,0.1l0,0.1l0,0.1l0,0.1l0,0.1l0,0.2l0.1,0.2l0.2,0.2l0.2,0.1l0.2,0.1l0.2,0.1l0.2,0.1l0.2,0.1
				l0.1,0.2l0.1,0.1l0.1,0.2l0.1,0.2l0.1,0.2l0.3,0.4l-0.1,0.2l-0.1,0.1l-0.1,0.3c0,0,0,0-0.2,0.2c-0.2,0.2-0.2,0.1-0.2,0.1
				s-0.1,0.2-0.3,0.2c-0.2,0.1-0.1,0.2-0.1,0.2l0.2,0l0.2,0l0.4,0l0.2,0.1l-0.3,0.1c0,0-0.3,0.1-0.4,0.1c-0.2,0-0.3,0-0.3,0
				s0,0-0.2,0c-0.2,0-0.1,0-0.3,0.1c-0.1,0,0.1,0.1,0.1,0.1l0.2,0.1l0.2,0.1l0.3,0c0,0,0,0,0.3,0c0.1,0,0.1,0,0.2,0l0,0.1l0,0.1
				l-0.1,0.2l-0.2,0.1l-0.1,0.2c0,0,0,0-0.1,0.1c-0.1,0.1-0.1,0.1-0.1,0.1l-0.1,0.2l0,0.1l0.2-0.1c0,0,0,0,0.2-0.1
				c0.1,0,0.1,0,0.1,0l0.1,0l0.3-0.1c0,0,0.1,0,0.2-0.1c0.1-0.1,0.2-0.2,0.2-0.2l0.1-0.1l0.3-0.2l0.1,0.2l0,0.1l0,0.1l-0.1,0.2
				l-0.2,0.4c0,0,0,0.2,0,0.3c0,0.1,0.1,0.2,0.2,0.3c0,0.1,0.1,0.1,0.1,0.1l0.2,0.1c0,0,0.2,0.1,0.3,0.1c0.1,0,0.3,0,0.3,0l-0.2,0.2
				l-0.2,0.1c0,0-0.1,0.3-0.1,0.4c-0.1,0.1-0.1,0.2-0.1,0.3c-0.1,0.1-0.1,0.2-0.1,0.2l-0.1,0.2l0,0.1l0.1,0.1l0.2,0.1l0.3,0
				c0,0,0.2,0.1,0.3,0c0.1,0,0.2,0,0.3,0c0.1,0,0.2,0,0.2,0l0.2,0l0.3-0.1c0,0,0,0,0.1,0c0.1,0,0.2,0,0.2,0l0.2-0.1l0.2-0.2
				c0,0,0,0,0.1-0.1c0.1-0.1,0.2-0.1,0.3-0.2c0.1-0.1,0.3-0.1,0.3-0.1l0.2-0.2l0.1-0.1c0,0,0.2-0.2,0.3-0.4c0.1-0.2,0,0,0.1-0.1
				c0.1-0.1,0.1-0.1,0.1-0.2c0-0.1,0.1-0.1,0.1-0.2c0-0.1,0.1-0.1,0.1-0.1s0.1-0.1,0.2-0.3c0.1-0.2,0.1-0.1,0.1-0.1l0.2-0.1
				c0,0,0.2-0.2,0.4-0.3c0.1-0.2,0.1-0.1,0.1-0.1l0.2-0.2c0,0,0,0,0.1-0.1c0.1-0.1,0.1,0,0.2-0.2c0.1-0.1,0.1,0,0.2-0.1
				c0.1-0.1,0.3-0.2,0.3-0.2s0.2,0,0.4,0c0.2,0,0.2,0,0.3,0c0.1,0,0.2,0.1,0.2,0.1l0.1,0.1l0.1,0.1l0.1,0.2l0,0.1l0.2,0.2
				c-0.1-0.4-0.3-2.2-0.3-2.2c0.1-0.4-0.1-1.3-0.1-1.3c0-0.5-0.4-2.8-0.4-2.8c-1-1-1.3-2.4-1.3-2.5c0-0.1,0-0.2,0-0.2s0,0,0-0.1
				c0-0.1,0-0.2,0-0.2l0-0.1l0-0.3l0-0.2l0.1-0.2l0.2-0.1l0-0.1l-0.1-0.1l0-0.2l0-0.1l0-0.2c0,0,0,0,0-0.1c0-0.1,0.1-0.1,0.1-0.1
				l0-0.3l-0.1-0.1l0-0.1l0-0.1c0,0,0,0,0-0.1c0-0.1,0-0.1,0-0.1l0.2-0.2l0.3-0.1c0,0,0,0,0.2-0.1c0.1,0,0.1,0,0.1,0
				c-0.1,0-0.2-0.1-0.2-0.2l-0.2,0.1c0,0,0,0-0.2,0c-0.1,0-0.1-0.1-0.1-0.1l0-0.1l0-0.1l0.1,0c-0.4-0.4-0.8-1.1-0.9-2.4
				c-0.1,0-0.1,0-0.1,0c-0.2,0-0.4-0.1-0.4-0.1l-0.1-0.5l0.5,0.1l0.2,0l0-0.1c0-0.1,0.1-1.5,0.8-1.9c0,0,0,0,0,0
				c0.1-0.1,0.1-0.1,0.1-0.1l0.1-0.1c0,0,0,0,0.1,0c0.1,0,0.1,0,0.1,0l0.3-0.1c0,0,0,0,0.1,0c0.1,0,0.2,0.1,0.2,0.1l0,0
				c0.1,0,0.1,0,0.2-0.1l0.1-0.2l0.3,0l0.1-0.1l0.2,0l0.1,0l0.1,0l0.1,0.1l0,0.1c0.1,0,0.2,0,0.2,0l0-0.1l0.1-0.2l0.1,0.1
				c0,0,0,0,0.2,0.2c0.1,0.1,0,0,0.1,0.1c0,0,0,0,0,0l0.1-0.1c0,0,0-0.2,0.1-0.4l0.1-0.1l0.2-0.2c0,0,0,0,0-0.1
				c0-0.1,0.1-0.1,0.1-0.1l0.2-0.2l0.1-0.1l0.1-0.1l0.1-0.1l0.1-0.1c0,0,0,0,0-0.1c0.6-0.1,0.9-0.2,0.9-0.2c4.3,0.8,5.6-1.4,5.6-1.4
				c1.4,4.2,3.9,3.3,3.9,3.3l0.1,1.2c0.3,0.4,0.4,0.9,0.4,1.2l0.6-0.2l0,0.5c0,0-0.3,0.1-0.5,0.1c0,0.5-0.1,0.9-0.2,1.2l0.2,1.6
				l0.3,0.3l0.4,0.4c0,0,0.1,0.4,0.1,0.9c0,0.5-0.2,0.8-0.4,1.1c-0.2,0.3-0.3,0.8-0.3,0.8l-0.6,0.4c0.5,1.9-2,4.4-2,4.4
				s0.2,1.7,0.2,2.1c0,0.4,0.3,0.6,0.3,0.6l0.8-0.2c0,0,0.3-0.1,1-0.4c0.7-0.3,1.1-0.1,1.1-0.1l0.2-0.1v0l0.2,0c0,0,0.1,0,0.2,0
				c0.1,0,0.2,0,0.3,0c0.1,0,0.3,0,0.3,0l0.3,0l0.2-0.1l0.1-0.1l0-0.1l-0.1-0.1c0,0,0,0-0.1-0.1c-0.1-0.1-0.1-0.2-0.1-0.3
				c-0.1-0.1-0.1-0.3-0.1-0.3l-0.2,0l-0.1-0.1l0-0.1c0.1,0,0.1,0,0.2,0c0.1,0,0.3-0.1,0.3-0.1l0.2-0.1c0,0,0.1,0,0.1-0.1
				c0-0.1,0.2-0.1,0.2-0.2c0-0.1,0-0.3,0-0.3l-0.1-0.3l-0.1-0.1l0-0.1l0-0.1l0.1-0.1l0.3,0.1l0.1,0.1c0,0,0.1,0.1,0.2,0.1
				c0.1,0.1,0.2,0.1,0.2,0.1l0.2,0.1l0.1,0c0,0-0.1,0,0.1,0c0.2,0.1,0.2,0.1,0.2,0.1l0.2,0.1l0-0.1l-0.1-0.1c0,0,0,0-0.1-0.1
				c-0.1-0.1-0.1-0.1-0.1-0.1l-0.1-0.2l-0.2-0.1l-0.1-0.1l0-0.1l0-0.1c0,0,0.1,0,0.1,0c0.3,0,0.3,0,0.3,0l0.2,0l0.2,0l0.1-0.1
				c0,0,0.3,0,0.1,0c-0.1,0-0.1,0-0.3,0c-0.2,0-0.2,0-0.2,0s-0.1,0-0.3,0c-0.1,0-0.4-0.1-0.4-0.1l-0.2-0.1l0.2-0.1l0.4,0l0.2,0
				l0.2,0c0,0,0-0.1-0.1-0.2c-0.2-0.1-0.3-0.2-0.3-0.2s0,0.1-0.2-0.1c-0.2-0.2-0.2-0.2-0.2-0.2l-0.1-0.2l-0.1-0.1l-0.1-0.1l0.2-0.3
				l0.1-0.1l0.1-0.1l0.1-0.2l0.1-0.1l0.1-0.2l0.2-0.1l0.1,0l0.1,0l0.1,0l0.1,0l0.2-0.2l0.1-0.2l0-0.1l0-0.1l0-0.1l0-0.1l0-0.1l0-0.1
				l0-0.2c0,0,0,0,0-0.1c0.1-0.1,0.1-0.1,0.1-0.1l0.2-0.1l0.1-0.1c0,0,0-0.1,0.1-0.1c0-0.1,0.1-0.1,0.1-0.2c0-0.1,0-0.2,0-0.2
				s0-0.1,0-0.1c0-0.1,0-0.2,0-0.2l-0.1-0.3l-0.1-0.1l-0.1-0.1l-0.2-0.2c0,0,0,0-0.1-0.1c-0.1-0.1-0.1-0.2-0.1-0.2l-0.1-0.1
				l-0.2-0.1c0,0-0.1-0.1-0.2-0.2c-0.1-0.1-0.1-0.2-0.1-0.2l-0.1-0.1L113,19l-0.1-0.1l-0.1-0.2l0-0.1l0-0.1l0-0.1l0-0.2l0-0.3l0.3,0
				c0,0,0.1,0,0.2,0c0.1,0,0.3,0.1,0.3,0.1l0.2,0c0,0-0.1,0,0.2,0c0.3,0,0.3,0,0.3,0s0,0,0.1,0c0.1,0,0.1,0,0.1,0L115,18l0.1,0
				l0.1,0l0.1-0.1c0,0,0.2-0.3,0.3-0.6l0,0C116,16.8,115.5,16.2,115.4,16.1z"/>
		</g>
	</g>
	<path fill="#C94E27" d="M81,7.3c-1.3,0-3.1,0.6-4.2,2.1l-0.3,0.4l-0.3-0.3l-0.2-0.2l0.3-1.9h-1c-1.9,0.8-3.9,1.1-6.4,1.3l-0.4,2.1
		c0.7,0.1,1.1,0.2,1.5,0.4c0.5,0.3,0.7,0.7,0.6,1.2c0,0.4-0.1,0.9-0.2,1.4L69.4,18l-0.1,0.1c-0.8,0.5-1.3,0.8-1.5,0.9l0,0
		c-0.9,0.6-1.5,0.9-2.1,0.9c-0.4,0-0.8-0.2-1-0.5c-0.2-0.3-0.3-0.6-0.3-1c0-0.5,0.2-1.5,0.4-2.3l1.6-8.3H62l-0.7,1.1L61,8.5
		c-1.3-1-2.7-1.2-4-1.2c-6,0-9.3,5-9.3,9.7c0,0,0,0,0,0.1v0.7l-0.6-0.3c-0.3-0.2-0.7-0.3-1.1-0.3c-0.8,0-1.5,0.4-1.8,1.2L43.9,19
		c-0.3,0.7-0.9,0.9-1.6,1.1c-0.7,0.2-1.4,0.2-1.9,0.2c-0.6,0-1.1-0.1-1.5-0.4l-0.4-0.3l9.9-10.3L48,7.7c-6.8,0-8.1-0.4-9.3-0.4
		c-4.4,0-5.8,1.9-5.8,3.8c0,1.3,0.5,1.8,1.6,1.9c1.5,0,1.7-0.6,2.1-1.4c0.3-0.8,0.8-2,2.5-2c0.4,0,0.9,0.1,1.7,0.2l0.8,0.1l-6.5,6.9
		c-1.3,1.3-2.6,2.1-3.3,2.5l-0.3,0.2l0,0c-0.8,0.4-1.7,0.4-2.1,0.4c-0.4,0-0.8-0.2-1-0.5c-0.2-0.3-0.3-0.6-0.3-1
		c0-0.5,0.2-1.5,0.4-2.3l1.6-8.3h-4.4l-0.7,1.1l-0.4-0.3c-1.3-1-2.7-1.2-4-1.2c-5.2,0-8.3,3.7-9.1,7.7l0,0l0,0
		c-0.8,1.8-1.5,2.8-2.1,3.4c-0.8,0.7-1.4,1-2,1c-0.4,0-0.7-0.1-0.9-0.4C6,18.8,6,18.5,6,18.1c0-0.5,0.1-1,0.2-1.8L9.1,0.9H7.2
		c-1.8,0.6-3.7,0.9-6.2,1L0.6,4C1.2,4,1.7,4.1,2,4.4c0.4,0.3,0.6,0.7,0.6,1.1c0,0.3-0.1,0.8-0.2,1.4L0.3,17.4
		c-0.3,1.5-0.3,2-0.3,2.5c0,1.7,1,2.8,3.7,2.8c1.8,0,3.7-0.6,5.6-2.1l0.3-0.3l0,0c0.1-0.1,0.3-0.3,0.4-0.4c0,0,0.1,0,0.1-0.1
		l0.2-0.2c0.2-0.2,0.3-0.3,0.4-0.5l0.5-0.6l0.2,0.7c0.8,2.4,2.8,3.4,5.2,3.4c1.9,0,3.4-0.7,4.7-1.8l0.4-0.3L22,21
		c0.9,1.4,2.3,1.7,3.8,1.7c1.8,0,3.7-0.6,5.2-1.6l0.5-0.3l0.4,1.7c1.2-0.1,2.5-0.2,3.8-0.2c1.2,0,2.3,0.1,3.5,0.2
		c1.1,0.1,2.3,0.2,3.4,0.2c3.2,0,4.7-1,5.2-2.3l0.3-0.8l0.4,0.7c1,1.6,2.7,2.4,4.7,2.4c1.9,0,3.4-0.7,4.7-1.8l0.4-0.3l0.3,0.4
		c0.9,1.4,2.3,1.7,3.8,1.7c2.1,0,4.1-0.7,5.7-2L69,20l-0.5,2.3h5.8l1.2-6.8c0.3-1.8,0.6-2.9,0.9-3.7c0.3-0.7,0.8-1.2,1.5-1.2
		c0.7,0,1,0.5,1.4,0.8c0.4,0.3,0.8,0.6,1.5,0.6c2.2,0,2.8-1.4,2.9-2.5C83.6,8,82.4,7.3,81,7.3z M22.4,16c-0.4,1.4-0.7,2.3-1.2,2.9
		c-0.4,0.6-1,0.9-1.6,0.9c0,0,0,0,0,0c-0.7,0-1.3-0.3-1.8-0.8c-0.4-0.5-0.6-1.2-0.6-2.1c0-0.3,0.1-1.9,0.7-3.6
		c0.6-1.6,1.6-3.3,3.5-3.4c0.6,0,1.3,0.1,2,0.5l0.3,0.2L22.4,16z M59,16c-0.4,1.4-0.7,2.3-1.2,2.9c-0.4,0.6-1,0.9-1.6,0.9
		c0,0,0,0,0,0c-0.7,0-1.3-0.3-1.8-0.8c-0.4-0.5-0.6-1.2-0.6-2.1c0-0.3,0.1-1.9,0.7-3.6c0.5-1.6,1.6-3.3,3.5-3.4c0.6,0,1.3,0.1,2,0.5
		l0.3,0.2L59,16z"/>
</g>
</svg>
