<?xml version="1.0" encoding="utf-8"?>
<!-- Generator: Adobe Illustrator 18.1.1, SVG Export Plug-In . SVG Version: 6.00 Build 0)  -->
<!DOCTYPE svg PUBLIC "-//W3C//DTD SVG 1.1//EN" "http://www.w3.org/Graphics/SVG/1.1/DTD/svg11.dtd">
<svg version="1.1" id="Layer_1" xmlns="http://www.w3.org/2000/svg" xmlns:xlink="http://www.w3.org/1999/xlink" x="0px" y="0px"
	 viewBox="0 0 131.6 67.2" enable-background="new 0 0 131.6 67.2" xml:space="preserve">
<g opacity="0.8">
	<polygon fill="#FFFFFF" points="22.8,11.2 19.6,24.3 16.3,11.2 10.4,11.2 16.9,33.8 16.9,55.8 22.2,55.8 22.2,33.8 28.7,11.2 	"/>
	<path fill="#FFFFFF" d="M40.2,11.2h-5.7l-6.1,44.6h5.4l1.3-8.1h4.6l1.2,8.1h5.5L40.2,11.2z M38.9,42.4h-3l1.5-10.7L38.9,42.4z"/>
	<polygon fill="#FFFFFF" points="59.1,11.2 59.1,30.2 54.7,11.2 49.5,11.2 49.5,55.8 54.9,55.8 54.9,36.9 59.3,55.8 64.4,55.8 
		64.4,11.2 	"/>
	<polygon fill="#FFFFFF" points="85.2,11.2 79.5,11.2 75.3,25.5 75.3,11.2 70,11.2 70,55.8 75.3,55.8 75.3,41.5 79.5,55.8 
		85.2,55.8 78.7,33.5 	"/>
	<polygon fill="#FFFFFF" points="101.1,16.5 101.1,11.2 88.1,11.2 88.1,55.8 101.1,55.8 101.1,50.5 93.4,50.5 93.4,36.2 101.1,36.2 
		101.1,30.8 93.4,30.8 93.4,16.5 	"/>
	<path fill="#FFFFFF" d="M117.6,13.4c-1.4-1.4-3.2-2.2-5.3-2.2h-7.5v44.6h7.5c2.1,0,3.8-0.7,5.3-2.2c1.5-1.4,2.2-3.2,2.2-5.3V18.6
		C119.8,16.6,119.1,14.8,117.6,13.4z M110.2,16.5h2.1c0.6,0,1.1,0.2,1.5,0.6c0.4,0.4,0.6,0.9,0.6,1.5v29.7c0,0.6-0.2,1.1-0.6,1.5
		c-0.4,0.4-0.9,0.6-1.5,0.6h-2.1V16.5z"/>
	<path fill="#FFFFFF" d="M125.8,51.3c-0.7,0.7-1,1.5-1,2.4c0,1,0.3,1.8,1,2.4c0.7,0.7,1.5,1,2.4,1c1,0,1.8-0.3,2.4-1
		c0.6-0.6,1-1.5,1-2.4c0-0.9-0.3-1.8-1-2.4C129.3,50,127.1,50,125.8,51.3z"/>
	<polygon fill="#FFFFFF" points="131,61 6.1,61 6.1,6.1 125.2,6.1 125.2,47.2 131.1,47.2 131.1,0 126.4,0 125.2,0 6.1,0 1.6,0 0,0 
		0,67.2 6.1,67.2 6.1,67.2 131,67.2 	"/>
</g>
</svg>
