<?xml version="1.0" encoding="utf-8"?>
<!-- Generator: Adobe Illustrator 18.1.1, SVG Export Plug-In . SVG Version: 6.00 Build 0)  -->
<!DOCTYPE svg PUBLIC "-//W3C//DTD SVG 1.1//EN" "http://www.w3.org/Graphics/SVG/1.1/DTD/svg11.dtd">
<svg version="1.1" id="Layer_1" xmlns="http://www.w3.org/2000/svg" xmlns:xlink="http://www.w3.org/1999/xlink" x="0px" y="0px"
	 viewBox="0 0 231.1 32.3" enable-background="new 0 0 231.1 32.3" xml:space="preserve">
<g opacity="0.6">
	<path fill="#DCDCDC" d="M6.6,15c0,0.7-0.1,1.2-0.2,1.7c-0.2,0.5-0.4,0.8-0.7,1.1c-0.3,0.3-0.7,0.5-1.2,0.6c-0.5,0.1-1,0.2-1.7,0.2
		H1.1v3.8H0V11.6h3c1.2,0,2.2,0.3,2.7,0.8C6.3,13,6.6,13.8,6.6,15z M5.5,15c0-0.5-0.1-0.9-0.2-1.2S5,13.3,4.8,13.1
		c-0.2-0.2-0.5-0.3-0.8-0.4c-0.3-0.1-0.7-0.1-1.1-0.1H1.1v5.1h1.6c0.5,0,0.9,0,1.2-0.1c0.3-0.1,0.6-0.2,0.9-0.4
		c0.2-0.2,0.4-0.5,0.5-0.8C5.4,16,5.5,15.5,5.5,15z"/>
	<path fill="#DCDCDC" d="M15.2,18.3c0,0.7-0.1,1.2-0.2,1.8c-0.1,0.5-0.3,1-0.6,1.4c-0.3,0.4-0.6,0.7-1.1,0.9c-0.4,0.2-1,0.3-1.6,0.3
		c-0.6,0-1.1-0.1-1.6-0.3c-0.4-0.2-0.8-0.5-1.1-0.9c-0.3-0.4-0.5-0.8-0.6-1.4c-0.1-0.5-0.2-1.1-0.2-1.8c0-0.6,0.1-1.2,0.2-1.8
		c0.1-0.5,0.3-1,0.6-1.4c0.3-0.4,0.6-0.7,1.1-0.9s1-0.3,1.6-0.3c0.6,0,1.1,0.1,1.6,0.3c0.4,0.2,0.8,0.5,1.1,0.9
		c0.3,0.4,0.5,0.8,0.6,1.4C15.2,17.1,15.2,17.7,15.2,18.3z M14.2,18.3c0-0.6,0-1-0.1-1.5c-0.1-0.4-0.2-0.8-0.4-1.1
		c-0.2-0.3-0.4-0.5-0.7-0.7s-0.7-0.2-1.1-0.2c-0.4,0-0.8,0.1-1.1,0.2c-0.3,0.2-0.6,0.4-0.7,0.7c-0.2,0.3-0.3,0.7-0.4,1.1
		c-0.1,0.4-0.1,0.9-0.1,1.5c0,0.5,0,1,0.1,1.5c0.1,0.4,0.2,0.8,0.4,1.1c0.2,0.3,0.4,0.5,0.7,0.7c0.3,0.2,0.7,0.2,1.1,0.2
		c0.4,0,0.8-0.1,1.1-0.2c0.3-0.2,0.6-0.4,0.7-0.7c0.2-0.3,0.3-0.7,0.4-1.1C14.1,19.4,14.2,18.9,14.2,18.3z"/>
	<path fill="#DCDCDC" d="M24.9,22.4h-1l-2.1-6.8l-2.1,6.8h-1l-1.9-8.2h1l1.5,6.7l2-6.7h0.9l2,6.7l1.4-6.7h1L24.9,22.4z"/>
	<path fill="#DCDCDC" d="M29.5,18.3c0,0.6,0,1.1,0.1,1.6c0.1,0.4,0.2,0.8,0.4,1.1c0.2,0.3,0.4,0.5,0.7,0.6c0.3,0.1,0.7,0.2,1.1,0.2
		c0.2,0,0.4,0,0.6-0.1c0.2,0,0.4-0.1,0.5-0.2c0.2-0.1,0.3-0.2,0.5-0.4c0.1-0.1,0.3-0.3,0.4-0.5l0.8,0.5c-0.1,0.2-0.3,0.4-0.5,0.6
		c-0.2,0.2-0.4,0.3-0.6,0.5s-0.5,0.2-0.8,0.3c-0.3,0.1-0.6,0.1-1,0.1c-0.5,0-1-0.1-1.4-0.2c-0.4-0.2-0.8-0.4-1-0.7
		c-0.3-0.3-0.5-0.8-0.6-1.3c-0.1-0.5-0.2-1.2-0.2-2c0-0.7,0.1-1.3,0.2-1.9c0.1-0.5,0.3-1,0.6-1.4c0.3-0.4,0.6-0.7,1-0.9
		c0.4-0.2,0.9-0.3,1.5-0.3c0.5,0,1,0.1,1.4,0.2c0.4,0.2,0.7,0.4,0.9,0.7s0.4,0.7,0.5,1.2c0.1,0.5,0.2,1,0.2,1.6v0.7H29.5z
		 M33.8,17.5c0-0.9-0.2-1.6-0.5-2s-0.8-0.6-1.5-0.6c-0.4,0-0.7,0.1-0.9,0.2c-0.3,0.1-0.5,0.3-0.7,0.5s-0.3,0.5-0.4,0.8
		c-0.1,0.3-0.2,0.7-0.2,1.2H33.8z"/>
	<path fill="#DCDCDC" d="M41.2,15.2c-0.2-0.1-0.4-0.1-0.6-0.1c-0.2,0-0.5,0-0.7,0.1c-0.2,0.1-0.4,0.2-0.6,0.3
		c-0.2,0.1-0.4,0.3-0.6,0.5c-0.2,0.2-0.4,0.4-0.7,0.7v5.8h-1v-8.2h1v1.4c0.2-0.2,0.5-0.4,0.7-0.6s0.4-0.4,0.6-0.5s0.4-0.2,0.6-0.3
		c0.2-0.1,0.4-0.1,0.7-0.1c0.2,0,0.3,0,0.4,0s0.2,0.1,0.4,0.1L41.2,15.2z"/>
	<path fill="#DCDCDC" d="M43.6,18.3c0,0.6,0,1.1,0.1,1.6c0.1,0.4,0.2,0.8,0.4,1.1c0.2,0.3,0.4,0.5,0.7,0.6c0.3,0.1,0.7,0.2,1.1,0.2
		c0.2,0,0.4,0,0.6-0.1c0.2,0,0.4-0.1,0.5-0.2c0.2-0.1,0.3-0.2,0.5-0.4c0.1-0.1,0.3-0.3,0.4-0.5l0.8,0.5c-0.1,0.2-0.3,0.4-0.5,0.6
		c-0.2,0.2-0.4,0.3-0.6,0.5s-0.5,0.2-0.8,0.3c-0.3,0.1-0.6,0.1-1,0.1c-0.5,0-1-0.1-1.4-0.2c-0.4-0.2-0.8-0.4-1-0.7
		c-0.3-0.3-0.5-0.8-0.6-1.3c-0.1-0.5-0.2-1.2-0.2-2c0-0.7,0.1-1.3,0.2-1.9c0.1-0.5,0.3-1,0.6-1.4c0.3-0.4,0.6-0.7,1-0.9
		c0.4-0.2,0.9-0.3,1.5-0.3c0.5,0,1,0.1,1.4,0.2c0.4,0.2,0.7,0.4,0.9,0.7s0.4,0.7,0.5,1.2c0.1,0.5,0.2,1,0.2,1.6v0.7H43.6z
		 M47.9,17.5c0-0.9-0.2-1.6-0.5-2s-0.8-0.6-1.5-0.6c-0.4,0-0.7,0.1-0.9,0.2c-0.3,0.1-0.5,0.3-0.7,0.5S44,16,43.9,16.3
		c-0.1,0.3-0.2,0.7-0.2,1.2H47.9z"/>
	<path fill="#DCDCDC" d="M56.4,22.4v-0.9c-0.2,0.2-0.3,0.3-0.5,0.4c-0.2,0.1-0.4,0.3-0.6,0.4c-0.2,0.1-0.4,0.2-0.7,0.2
		c-0.2,0.1-0.5,0.1-0.7,0.1c-0.5,0-1-0.1-1.3-0.3c-0.4-0.2-0.7-0.5-0.9-0.8c-0.3-0.4-0.4-0.8-0.6-1.3c-0.1-0.5-0.2-1.1-0.2-1.8
		c0-0.6,0.1-1.1,0.2-1.6c0.1-0.5,0.3-1,0.6-1.4s0.6-0.7,1-1S53.4,14,54,14c0.5,0,0.9,0.1,1.3,0.3c0.4,0.2,0.8,0.4,1.1,0.7v-4.1h1
		v11.6H56.4z M56.4,15.9c-0.4-0.3-0.8-0.6-1.2-0.7c-0.4-0.2-0.8-0.3-1.1-0.3c-0.3,0-0.6,0.1-0.9,0.2c-0.3,0.2-0.5,0.4-0.7,0.7
		c-0.2,0.3-0.3,0.7-0.4,1.1c-0.1,0.4-0.2,0.9-0.2,1.5c0,0.5,0,1,0.1,1.4s0.2,0.8,0.4,1.1c0.2,0.3,0.4,0.5,0.7,0.7s0.6,0.2,1,0.2
		c0.2,0,0.4,0,0.7-0.1c0.2-0.1,0.4-0.2,0.6-0.3c0.2-0.1,0.4-0.2,0.6-0.4c0.2-0.1,0.4-0.3,0.5-0.5V15.9z"/>
	<path fill="#DCDCDC" d="M71,18.3c0,0.6-0.1,1.2-0.2,1.8s-0.3,1-0.6,1.4c-0.3,0.4-0.6,0.7-1,0.9c-0.4,0.2-0.9,0.3-1.4,0.3
		c-0.4,0-0.8-0.1-1.2-0.3s-0.8-0.4-1.2-0.8v0.8h-1V10.8h1v4.3c0.2-0.2,0.3-0.3,0.5-0.5c0.2-0.1,0.4-0.3,0.6-0.4s0.4-0.2,0.7-0.2
		c0.2-0.1,0.5-0.1,0.7-0.1c0.6,0,1,0.1,1.4,0.3s0.7,0.5,1,0.9c0.2,0.4,0.4,0.8,0.5,1.4C70.9,17.1,71,17.7,71,18.3z M69.9,18.3
		c0-0.5,0-1-0.1-1.4c-0.1-0.4-0.2-0.8-0.4-1.1c-0.2-0.3-0.4-0.5-0.7-0.7c-0.3-0.2-0.6-0.2-1-0.2c-0.4,0-0.8,0.1-1.2,0.3
		c-0.4,0.2-0.8,0.5-1.1,0.9v4.6c0.4,0.3,0.7,0.6,1.1,0.8s0.8,0.3,1.2,0.3c0.3,0,0.6-0.1,0.9-0.2c0.3-0.1,0.5-0.3,0.7-0.6
		c0.2-0.3,0.4-0.6,0.5-1.1S69.9,18.9,69.9,18.3z"/>
	<path fill="#DCDCDC" d="M72.3,24.4c0.1,0.1,0.3,0.1,0.5,0.2s0.4,0.1,0.5,0.1c0.4,0,0.7-0.2,1-0.5c0.3-0.3,0.5-0.8,0.8-1.4l0.3-0.8
		l-3-7.8h1.1l2.4,6.5l2.5-6.5h1.1l-3.5,9c-0.2,0.4-0.3,0.8-0.5,1.1c-0.2,0.3-0.4,0.5-0.6,0.7c-0.2,0.2-0.4,0.3-0.7,0.4
		c-0.2,0.1-0.5,0.1-0.8,0.1c-0.1,0-0.2,0-0.3,0c-0.1,0-0.2,0-0.4,0c-0.1,0-0.2,0-0.3-0.1c-0.1,0-0.2-0.1-0.3-0.1L72.3,24.4z"/>
</g>
<g opacity="0.6">
	<g>
		<g>
			<polygon fill="#DCDCDC" points="229.2,10.6 229.2,16.5 229.3,17.8 226,10.6 224,10.6 224,20.9 225.8,20.9 225.8,15 225.7,13.7 
				229,20.9 231.1,20.9 231.1,10.6 			"/>
			<polygon fill="#DCDCDC" points="216.5,12.1 216.5,10.7 210,10.7 210,20.8 216.5,20.8 216.5,19.3 211.6,19.3 211.6,16.2 
				215.6,16.2 215.6,14.7 211.6,14.7 211.6,12.1 			"/>
			<polygon fill="#DCDCDC" points="142.1,20.5 143,20.5 143,11.8 145.7,11.8 145.7,11 139.4,11 139.4,11.8 142.1,11.8 			"/>
			<polygon fill="#DCDCDC" points="182.4,20.6 188.4,20.6 188.4,19.6 183.6,19.6 183.6,16 187.6,16 187.6,14.9 183.6,14.9 
				183.6,11.9 188.4,11.9 188.4,10.9 182.4,10.9 			"/>
			<path fill="#DCDCDC" d="M171.1,10.8c-3.3,0-3.6,3.8-3.6,5c0,1.5,0.4,5,3.6,5c1,0,2.1-0.4,2.9-1v-4.2h-3.4v0.9h2.3v2.7l0,0
				c-0.5,0.3-1.2,0.5-1.9,0.5c-2.1,0-2.4-2.5-2.4-3.9c0-1.2,0.2-4,2.4-4c1.1,0,1.6,0.5,1.9,1.2l1.1,0
				C173.7,11.5,172.3,10.8,171.1,10.8z"/>
			<path fill="#DCDCDC" d="M157.4,11h-1.4l-3.1,9.5l1.1,0l0.8-2.6h3.7l0.8,2.6h1.1L157.4,11z M155.1,17l1.6-5.1l1.6,5.1H155.1z"/>
			<polygon fill="#DCDCDC" points="195.6,10.7 195.6,12.1 198.3,12.1 198.3,20.7 199.7,20.7 199.7,12.1 202.4,12.1 202.4,10.7 			
				"/>
			<path fill="#DCDCDC" d="M125.8,17.8c0.1,1.7,1.5,2.8,3.1,2.8c1.8,0,2.9-1,2.9-2.7c0-0.9-0.4-1.6-1.2-2.1l-2.1-0.9
				c-0.7-0.3-1.5-0.7-1.5-1.7c0-1,0.9-1.5,1.8-1.5c1,0,1.7,0.3,1.9,1.3l0.8,0c-0.2-1.5-1.3-2.1-2.7-2.1c-1.3,0-2.7,0.7-2.7,2.4
				c0,1.5,1,1.9,2.3,2.5c0.1,0.1,0.2,0.1,0.4,0.2c0.1,0,0.2,0.1,0.2,0.1c0.9,0.4,1.9,0.8,1.9,2c0,1.1-0.8,1.9-2.1,1.9
				c-1.2,0-2-0.7-2.3-2H125.8z"/>
		</g>
		<g>
			<polygon fill="#DCDCDC" points="111.2,15.4 111.2,19.5 108.7,16.9 106.6,18.1 106.6,24.1 108.2,23.2 108.2,19.1 110.6,21.7 
				112.7,20.5 112.7,14.5 			"/>
			<polygon fill="#DCDCDC" points="96.5,20.6 96.5,19.3 99.6,21.2 99.6,19.9 96.5,18 96.5,16.9 99.8,18.9 99.8,17.6 94.9,14.7 
				94.9,21.1 99.9,24 99.9,22.7 			"/>
			<polygon fill="#DCDCDC" points="103,5.9 101.8,6.6 104.2,7.9 100,10.4 101.5,11.3 105.7,8.8 108,10.2 109.2,9.5 			"/>
			<path fill="#DCDCDC" d="M103.4,1.8L115.9,9v14.4l-12.5,7.2L91,23.4V9L103.4,1.8 M103.4,0l-14,8.1v16.2l14,8.1l14-8.1V8.1L103.4,0
				L103.4,0z"/>
		</g>
	</g>
</g>
</svg>
